<svg width="32" height="32" viewBox="0 0 32 32" fill="none" xmlns="http://www.w3.org/2000/svg">
<g clip-path="url(#clip0)">
<rect width="32" height="32" fill="#FFFCF7"/>
<path d="M5.06766 22.063C5.48099 22.063 5.73932 21.7943 5.84266 21.257C5.88399 21.0503 5.90466 20.6163 5.90466 19.955V11.368C5.90466 10.7067 5.88399 10.283 5.84266 10.097C5.73932 9.55967 5.48099 9.291 5.06766 9.291C4.90232 9.291 4.65432 9.33233 4.32366 9.415C4.01366 9.477 3.76566 9.508 3.57966 9.508C3.10432 9.508 2.70132 9.31167 2.37066 8.919C2.06066 8.52633 1.90566 8.04067 1.90566 7.462C1.90566 6.75933 2.10199 6.21167 2.49466 5.819C2.90799 5.40567 3.45566 5.199 4.13766 5.199C4.44766 5.199 5.17099 5.261 6.30766 5.385C7.07232 5.46767 7.81632 5.509 8.53966 5.509C9.11832 5.509 9.94499 5.45733 11.0197 5.354C12.115 5.25067 12.8383 5.199 13.1897 5.199C14.6983 5.199 15.4527 5.95333 15.4527 7.462C15.4527 8.04067 15.2873 8.52633 14.9567 8.919C14.6467 9.31167 14.254 9.508 13.7787 9.508C13.6133 9.508 13.3653 9.477 13.0347 9.415C12.704 9.33233 12.456 9.291 12.2907 9.291C11.7327 9.291 11.4537 9.98333 11.4537 11.368V19.955C11.4537 21.3603 11.7327 22.063 12.2907 22.063C12.456 22.063 12.704 22.032 13.0347 21.97C13.3653 21.8873 13.6133 21.846 13.7787 21.846C14.254 21.846 14.6467 22.0423 14.9567 22.435C15.2873 22.8277 15.4527 23.3133 15.4527 23.892C15.4527 24.5533 15.246 25.101 14.8327 25.535C14.44 25.969 13.9337 26.186 13.3137 26.186C13.1897 26.186 13.0967 26.1757 13.0347 26.155L11.0817 25.907C10.5857 25.845 10.038 25.814 9.43866 25.814C8.50866 25.814 7.53732 25.8657 6.52466 25.969C5.30532 26.093 4.50966 26.155 4.13766 26.155C3.47632 26.155 2.93899 25.9483 2.52566 25.535C2.11232 25.1217 1.90566 24.574 1.90566 23.892C1.90566 23.2927 2.06066 22.807 2.37066 22.435C2.70132 22.0423 3.11466 21.846 3.61066 21.846C3.77599 21.846 4.01366 21.8873 4.32366 21.97C4.65432 22.032 4.90232 22.063 5.06766 22.063ZM19.72 22.063C20.1333 22.063 20.3917 21.7943 20.495 21.257C20.5363 21.0503 20.557 20.6163 20.557 19.955V11.368C20.557 10.7067 20.5363 10.283 20.495 10.097C20.3917 9.55967 20.1333 9.291 19.72 9.291C19.5547 9.291 19.3067 9.33233 18.976 9.415C18.666 9.477 18.418 9.508 18.232 9.508C17.7567 9.508 17.3537 9.31167 17.023 8.919C16.713 8.52633 16.558 8.04067 16.558 7.462C16.558 6.75933 16.7543 6.21167 17.147 5.819C17.5603 5.40567 18.108 5.199 18.79 5.199C19.1 5.199 19.8233 5.261 20.96 5.385C21.7247 5.46767 22.4687 5.509 23.192 5.509C23.7707 5.509 24.5973 5.45733 25.672 5.354C26.7673 5.25067 27.4907 5.199 27.842 5.199C29.3507 5.199 30.105 5.95333 30.105 7.462C30.105 8.04067 29.9397 8.52633 29.609 8.919C29.299 9.31167 28.9063 9.508 28.431 9.508C28.2657 9.508 28.0177 9.477 27.687 9.415C27.3563 9.33233 27.1083 9.291 26.943 9.291C26.385 9.291 26.106 9.98333 26.106 11.368V19.955C26.106 21.3603 26.385 22.063 26.943 22.063C27.1083 22.063 27.3563 22.032 27.687 21.97C28.0177 21.8873 28.2657 21.846 28.431 21.846C28.9063 21.846 29.299 22.0423 29.609 22.435C29.9397 22.8277 30.105 23.3133 30.105 23.892C30.105 24.5533 29.8983 25.101 29.485 25.535C29.0923 25.969 28.586 26.186 27.966 26.186C27.842 26.186 27.749 26.1757 27.687 26.155L25.734 25.907C25.238 25.845 24.6903 25.814 24.091 25.814C23.161 25.814 22.1897 25.8657 21.177 25.969C19.9577 26.093 19.162 26.155 18.79 26.155C18.1287 26.155 17.5913 25.9483 17.178 25.535C16.7647 25.1217 16.558 24.574 16.558 23.892C16.558 23.2927 16.713 22.807 17.023 22.435C17.3537 22.0423 17.767 21.846 18.263 21.846C18.4283 21.846 18.666 21.8873 18.976 21.97C19.3067 22.032 19.5547 22.063 19.72 22.063Z" fill="url(#paint0_linear)"/>
</g>
<defs>
<linearGradient id="paint0_linear" x1="8" y1="10" x2="22.904" y2="19.6483" gradientUnits="userSpaceOnUse">
<stop stop-color="#825D34"/>
<stop offset="1" stop-color="#825D34" stop-opacity="0.04"/>
</linearGradient>
<clipPath id="clip0">
<rect width="32" height="32" fill="white"/>
</clipPath>
</defs>
</svg>
