<svg width="970" height="1562" viewBox="0 0 970 1562" fill="none" xmlns="http://www.w3.org/2000/svg">
<g clip-path="url(#clip0_3542_77)">
<path d="M192.792 295.803C192.017 294.788 191.274 293.751 190.562 292.692C188.52 289.624 187.751 286.592 186.468 283.289C180.352 267.551 180.082 250.556 179.805 233.915C179.721 228.869 178.604 222.192 178.299 216.776C177.413 201.903 178.547 186.979 181.667 172.409C192.501 121.789 222.909 77.5067 266.259 49.2205C305.257 23.5744 347.046 13.0377 393.642 13.1811C426.749 13.2831 457.55 19.0338 488.165 32.3493C492.771 34.3527 499.827 38.6999 503.912 40.181C528.017 48.9186 548.703 62.757 542.284 91.5549C593.214 113.469 615.166 173.824 604.869 226.041C603.977 230.562 601.231 235.322 600.351 239.615C598.363 249.264 595.108 260.37 596.403 270.211C601.536 297.781 616.501 322.869 618.56 351.051C618.926 356.071 618.344 365.924 619.435 370.403C621.904 380.495 625.874 386.424 625.564 397.332L625.104 397.519C623.825 395.761 623.012 394.273 621.151 393.211C620.371 393.572 620.349 393.639 620.498 395.392C621.068 402.061 622.618 422.589 619.712 428.065C618.167 427.873 617.824 426.413 616.146 424.659C615.15 425.568 613.943 433.075 613.439 435.053C611.252 443.697 607.864 451.39 605.76 460.104L603.246 452.007C597.887 469.658 592.351 477.125 582.922 492.802C580.254 497.242 577.447 498.52 575.376 503.706L580.995 512.492C615.781 512.381 626.217 510.435 630.165 548.324C632.302 548.799 634.621 549.512 636.709 550.255C660.958 558.894 691.298 564.143 709.867 583.385C720.254 594.581 728.669 607.986 737.395 620.445C780.275 681.768 814.44 748.13 845.71 815.954C852.165 829.958 862.956 848.983 867.357 863.291C864.628 868.679 854.264 880.146 849.896 884.52C857.392 898.773 863.786 917.372 870.07 932.328C876.847 948.474 884.299 964.687 890.81 980.933C899.463 1002.63 904.424 1026.1 909.966 1048.79C922.586 1100.48 949.368 1279.26 957.979 1429.57C960.605 1475.4 876.608 1455.17 829.053 1457.41C790.99 1461.27 772.562 1462.97 734.371 1464.87C729.1 1465.14 631.217 1106.09 626.4 1104.68C616.75 1114.81 613.09 1117.4 599.52 1122.22C600.152 1126.6 600.367 1129.53 600.235 1134H595.058H559.807H550.057H493.966H485.245L387.998 1244.79L328.766 1563.73H228.238C216.874 1518.28 184.475 1270.93 188.553 1170.12C170.379 1152.18 156.222 1134.71 141.961 1118.12C114.3 1085.94 101.351 1063.55 82.3988 1023.05C79.5735 1017.02 76.0745 1008.77 73.288 1002.53C69.0975 993.003 65.0659 983.402 61.1942 973.74C55.392 959.26 51.2837 945.141 46.2232 930.44C40.1713 912.854 32.7232 894.52 27.2725 876.791C18.1853 846.209 13.0553 814.587 12.0079 782.704C11.6192 766.187 11.2773 752.222 15.8863 736.209C22.9699 711.591 34.988 688.944 48.4183 667.261C64.5731 641.176 87.4597 620.517 112.682 603.412C155.769 572.953 203.81 550.68 249.239 524.143C252.654 522.148 257.994 521.781 261.412 519.4C268.815 514.243 275.422 507.764 282.586 502.346L282.108 496.037C279.879 492.392 275.812 489.04 272.91 485.751C255.857 466.42 238.555 458.073 235.304 430.38C231.738 428.538 226.749 424.808 224.125 421.767C200.285 394.136 182.262 360.437 183.034 323.063C183.219 314.096 186.306 301.936 192.792 295.803Z" fill="black"/>
<path d="M630.087 554.547C642.118 558.589 654.469 562.742 666.699 566.097C701.911 575.754 716.146 600.073 735.275 628.467C753.418 654.835 770.381 682 786.11 709.879C813.599 758.966 837.001 811.962 860.863 862.909L860.21 863.562C854.424 869.404 849.364 876.225 843.678 882.316C815.448 912.549 780.087 931.043 743.43 949.326C741.498 939.891 739.41 929.038 738.286 919.47C750.566 901.845 764.883 882.87 771.167 862.023C774.677 850.378 776.903 830.688 778.708 818.13C779.35 813.656 781.421 790.439 781.089 786.962L780.496 786.208C778.497 788.036 773.802 823.817 773.072 828.933C768.892 859.431 756.468 888.219 737.14 912.183C736.675 909.315 735.092 900.777 735.513 898.374C736.686 891.74 740.113 884.082 742.09 877.399C745.633 865.024 748.767 852.526 751.491 839.941C754.06 828.252 755.876 816.402 756.922 804.475C759.707 769.68 756.584 703.296 745.284 670.693L745.29 671.419C745.351 674.564 745.805 677.155 746.248 680.25C748.169 693.589 750.71 707.072 751.823 720.511C755.997 768.534 752.277 816.917 740.806 863.739C738.696 872.012 736.625 880.716 733.442 888.606C732.008 879.52 729.832 867.798 729.899 858.772C730.048 838.529 732.551 817.897 733.464 797.687C735.308 756.867 729.306 717.194 718.726 677.88C715.083 664.353 711.628 643.445 705.554 631.225C707.381 643.8 711.75 656.773 713.743 669.309C718.709 700.583 725.868 732.947 727.191 764.63C728.033 784.78 727.142 809.542 725.713 829.691C723.244 823.911 721.555 805.478 720.542 798.462C718.35 783.983 716.019 769.52 713.56 755.084C710.471 737.543 677.124 598.334 669.861 590.461C667.214 593.069 674.257 612.21 675.358 616.097C677.623 624.204 679.754 632.343 681.764 640.516C690.412 675.627 698.324 710.915 705.482 746.352C717.579 807.798 722.563 870.666 732.202 932.527C735.081 950.987 739.062 969.199 742.599 987.532C746.159 1005.95 749.033 1024.46 752.255 1042.94C755.372 1060.83 796.002 1312.06 808.511 1456.39C728.485 1447.64 628.586 1529.93 556.003 1614.72C483.421 1699.51 417.024 1863.86 298.346 1877.04C264.301 1824.43 186.047 1289.64 194.605 1174.65C211.829 1196.87 285.165 1247.11 335.954 1246.89C380.877 1246.7 386.466 1208.05 413.416 1186.43C443.049 1162.67 494.343 1070.15 501.873 1049.31C506.182 1037.39 509.567 1022.69 513.173 1010.44L513.341 1008.73C517.816 996.812 523.443 966.032 526.654 951.951C526.796 950.904 526.939 951.065 527.713 950.046C527.055 947.925 527.452 943.678 528.785 941.89L530.2 941.059C529.583 940.373 529.495 940.112 529.018 939.315C528.981 935.068 529.553 930.838 530.715 926.751L531.061 924.752C530.968 923.064 532.315 913.95 532.609 911.713L532.828 910.278C532.622 907.92 533.465 900.755 534.48 898.628L535.458 897.975C534.064 894.282 535.664 885.71 536.219 881.474L536.802 879.885C536.537 877.466 536.598 877.023 537.001 874.608C537.101 873.435 537.209 872.266 537.324 871.092C541.288 873.379 557.327 868.385 561.534 866.845C575.807 861.629 586.017 854.658 592.483 840.638C592.898 841.962 592.826 841.895 593.828 842.842C603.977 817.87 595.152 793.207 569.457 782.698C562.094 779.686 555.201 779.608 547.369 780.018C548.007 769.392 549.058 739.492 556.003 733.91C575.176 718.506 581.156 701.768 584.267 676.491C593.114 673.766 599.985 670.621 604.231 661.873C608.644 652.775 612.769 639.298 615.559 629.453C623.587 623.794 627.175 620.765 628.586 610.112C630.923 592.471 630.818 572.216 630.087 554.547Z" fill="#FCDE37"/>
<path d="M537.324 871.093C541.289 873.38 557.327 868.385 561.535 866.846C575.808 861.63 586.017 854.659 592.484 840.639C592.899 841.962 592.827 841.896 593.829 842.842C589.87 853.501 578.2 861.818 568.334 866.613C577.762 890.788 600.589 897.643 623.765 888.225C629.938 885.65 635.84 882.455 641.371 878.695C644.166 876.791 654.221 869.21 656.646 868.396C658.008 869.072 658.899 869.747 659.181 871.353C662.16 888.302 660.006 906.713 655.937 922.865C662.985 921.935 684.904 916.348 688.735 917.167C692.04 919.947 692.483 922.771 692.854 926.946C695.357 955.379 693.723 986.481 674.08 1009.17C664.723 1019.9 651.447 1026.44 637.224 1027.28C612.121 1028.97 589.333 1013 576.605 992.566C574.435 989.083 571.883 984.742 569.447 981.519C556.469 996.032 543.222 1009.49 522.22 1010.74C519.201 1010.89 516.175 1010.79 513.173 1010.45L513.341 1008.73C517.816 996.813 523.443 966.032 526.654 951.951C526.796 950.905 526.939 951.065 527.713 950.046C527.056 947.926 527.452 943.679 528.785 941.89L530.201 941.06C529.583 940.373 529.495 940.113 529.018 939.316C528.982 935.069 529.553 930.838 530.715 926.752L531.061 924.753C530.969 923.064 532.316 913.95 532.61 911.713L532.828 910.279C532.622 907.92 533.465 900.755 534.48 898.629L535.458 897.975C534.065 894.282 535.664 885.711 536.219 881.475L536.802 879.886C536.537 877.466 536.599 877.023 537.002 874.609C537.101 873.435 537.209 872.267 537.324 871.093Z" fill="#040A04"/>
<path d="M640.839 881.502C644.155 879.559 646.326 878.191 649.432 875.938C654.182 916.63 637.373 960.456 591.797 966.691C573.759 969.16 556.558 963.972 542.389 952.826C537.724 949.166 534.338 944.797 530.201 941.06C529.584 940.373 529.495 940.113 529.018 939.315C528.982 935.068 529.553 930.838 530.715 926.752C574.54 981.425 647.909 949.504 640.839 881.502Z" fill="#C9EC57"/>
<path d="M537.002 874.609C547.721 873.485 556.17 871.331 566.207 867.416C572.973 883.706 585.336 894.42 603.423 894.819C596.852 912.732 583.697 917.483 565.632 911.242C554.631 907.444 546.356 898.451 541.276 888.274C540.638 886.99 537.474 880.65 536.802 879.886C536.537 877.466 536.598 877.023 537.002 874.609Z" fill="#80C458"/>
<path d="M526.654 951.951C529.04 953.131 539.235 962.505 542.253 964.836C550.898 971.514 559.381 973.125 568.272 977.992C555.566 998.064 537.252 1009.04 513.341 1008.73C517.815 996.813 523.443 966.032 526.654 951.951Z" fill="#80C458"/>
<path d="M630.752 887.387C632.922 885.942 635.413 883.905 637.86 883.539C638.719 884.037 639.294 884.165 639.4 885.383C643.773 936.568 594.732 971.823 549.467 942.183C542.306 937.565 536.064 931.651 531.061 924.752C530.969 923.063 532.316 913.949 532.61 911.712C542.532 925.665 555.96 937.587 573.361 940.532C608.921 946.557 630.525 921.479 630.752 887.387Z" fill="#299F65"/>
<path d="M617.404 893.445L629.097 888.744C627.757 918.379 612.133 941.513 579.75 940.062C562.443 939.287 549.047 929.531 538.151 916.834C536.518 914.929 534.281 911.828 532.828 910.278C532.622 907.919 533.465 900.754 534.481 898.628C543.604 912.216 555.373 922.991 571.839 926.197C593.63 930.444 612.67 919.841 616.767 897.365C616.999 896.064 617.215 894.758 617.404 893.445Z" fill="#C9EC57"/>
<path d="M650.738 874.608C652.488 873.152 654.182 871.425 656.297 870.799C658.384 872.765 657.996 877.216 658.212 879.891C661.817 925.217 638.685 975.893 587.113 977.045C584.367 977.1 581.621 977.05 578.875 976.89C577.236 974.747 576.466 973.623 577.159 970.921C578.67 969.06 577.878 969.575 580.093 968.734C582.119 968.734 584.168 968.756 586.194 968.656C629.672 966.535 652.05 929.099 651.84 889.143C651.807 884.282 651.436 879.426 650.738 874.608Z" fill="#299F65"/>
<path d="M536.219 881.475C540.458 890.345 543.786 897.493 551.2 904.326C567.957 919.758 596.558 921.646 604.769 896.358C604.941 895.838 605.101 895.317 605.256 894.797C608.5 894.57 611.54 894.293 614.795 894.404C616.074 897.516 613.627 902.876 612.487 905.849C603.208 930.124 570.72 930.085 552.715 916.331C547.728 912.521 543.358 907.865 539.343 902.986C538.36 901.796 536.413 898.822 535.458 897.975C534.065 894.282 535.664 885.71 536.219 881.475Z" fill="#299F65"/>
<path d="M527.714 950.047C527.056 947.926 527.453 943.679 528.786 941.891C532.683 945.357 536.161 949.31 540.022 952.594C551.246 962.228 565.328 967.898 580.094 968.735C577.879 969.576 578.671 969.061 577.159 970.922C576.467 973.624 577.237 974.748 578.875 976.891C557.632 974.022 543.113 964.776 528.236 950.407C528.062 950.285 527.888 950.163 527.714 950.047Z" fill="#299F65"/>
<path d="M685.739 918.69C687.356 918.679 687.727 918.519 689.083 919.482C694.288 929.92 690.766 967.727 687.45 979.471C682.988 995.296 674.301 1010.38 659.563 1018.59C646.525 1025.83 631.294 1026.9 617.109 1022.69C598.374 1017.12 584.378 1002.95 575.27 986.166C573.897 983.392 572.552 980.606 571.234 977.81L577.491 978.901C585.02 990.822 593.087 1001.77 605.527 1009C616.456 1015.34 629.555 1017.95 641.924 1014.57C653.445 1011.43 663.261 1002.01 668.936 991.747C680.679 970.523 680.397 944.643 673.952 921.813C677.811 920.584 681.814 919.693 685.739 918.69Z" fill="#299F65"/>
<path d="M670.963 922.632C671.993 922.483 671.926 922.566 672.807 922.959C677.169 933.629 677.385 954.93 675.807 966.132C673.504 982.427 666.661 997.4 653.196 1007.39C644.593 1013.78 634.013 1015.76 623.521 1014.12C607.139 1011.56 593.884 999.93 584.406 986.996L579.346 979.354L586.986 979.188C591.515 987.278 598.756 994.748 606.923 999.188C615.72 1003.98 625.431 1005.57 635.103 1002.66C645.971 999.393 654.171 992.754 659.469 982.721C668.787 965.096 667.392 943.081 661.623 924.548L670.963 922.632Z" fill="#C9EC57"/>
<path d="M655.09 924.686C655.295 924.669 655.5 924.647 655.705 924.636C657.061 924.558 659.143 924.287 660.107 925.411C663.827 929.785 664.547 946.923 664.541 953.041C664.536 967.598 661.214 981.973 650.49 992.521C643.757 999.154 633.952 1002.86 624.513 1002.67C612.504 1002.42 602.843 995.871 594.738 987.549C592.573 984.824 590.646 981.89 588.664 979.032L595.413 978.39C601.525 984.359 607.754 989.996 616.164 992.443C623.328 994.531 630.719 993.545 637.213 989.93C645.23 985.461 650.65 977.992 653.009 969.182C655.644 959.32 655.838 945.384 650.551 936.352C652.2 932.504 653.657 928.612 655.09 924.686Z" fill="#80C458"/>
<path d="M649.786 937.908C651.392 940.533 652.006 943.467 652.449 946.48C654.149 958.052 652.848 971.12 645.656 980.721C641.232 986.635 634.566 991.07 627.17 992.061C618.145 993.268 610.283 989.425 603.258 984.154C601.193 982.465 599.548 980.428 597.832 978.407C601.292 977.67 604.703 976.491 608.085 975.444C608.506 975.965 608.905 976.463 609.392 976.912C612.913 980.179 618.688 982.515 623.46 982.128C628.875 981.685 633.753 978.312 637.097 974.176C642.816 967.111 643.137 959.304 642.135 950.644C644.521 946.314 647.212 942.127 649.786 937.908Z" fill="#C9EC57"/>
<path d="M640.307 952.848L640.916 953.772C641.337 958.28 641.393 962.338 639.698 966.635C637.506 972.172 633.16 977.144 627.546 979.359C622.779 981.247 618.599 980.506 614.087 978.462C612.492 977.46 610.942 976.369 609.381 975.323C622.668 969.465 630.48 963.352 640.307 952.848Z" fill="#80C458"/>
<path d="M663.467 806.269C664.868 806.186 666.252 806.169 667.641 806.374C671.445 806.928 675.337 808.96 677.524 812.172C680.386 816.38 679.932 820.156 679.096 824.857C677.02 827.277 674.7 830.449 671.572 831.435C670.188 831.585 668.776 831.756 667.381 831.784C662.022 831.884 658.617 828.866 655.002 825.394C654.658 821.407 654.06 817.022 655.561 813.19C657.094 809.276 659.879 807.886 663.467 806.269Z" fill="#FCE5B1"/>
<path d="M646.148 630.582C651.785 635.842 676.461 713.002 680.059 725.2C683.569 737.088 686.515 749.12 689.538 761.142L688.137 760.206C685.164 755.184 683.846 748.456 681.836 742.913C672.214 716.385 664.131 689.464 655.765 662.515C652.848 653.129 647.444 639.724 646.148 630.582Z" fill="black"/>
<path d="M694.095 874.874C696.819 874.758 699.603 874.902 702.327 874.946C702.748 875.312 703.158 875.688 703.562 876.07C706.12 878.501 708.113 881.425 708.091 885.107C708.058 889.26 705.361 891.746 702.543 894.36C700.777 894.526 698.945 894.758 697.173 894.647C694.3 894.476 691.504 892.964 689.721 890.694C688.126 888.667 687.351 885.827 687.805 883.274C688.503 879.31 690.922 876.973 694.095 874.874Z" fill="#FCE5B1"/>
<path d="M593.475 752.034C594.234 752.006 594.987 752.001 595.74 752.017C599.886 752.133 601.907 754.514 604.537 757.344C604.792 760.389 604.697 763.462 604.686 766.513C601.951 769.276 599.587 771.231 595.806 772.432C591.521 771.458 588.642 769.664 585.287 766.956L584.794 758.739C587.496 755.666 589.494 753.473 593.475 752.034Z" fill="#FCE5B1"/>
<path d="M621.351 849.957C622.259 849.985 623.167 850.023 624.064 850.162C627.873 850.754 630.398 853.656 632.629 856.524C632.845 859.16 632.889 861.806 632.961 864.453C630.636 866.945 628.621 868.861 625.304 869.94C624.717 869.935 624.136 869.918 623.549 869.902C622.68 869.885 621.783 869.885 620.931 869.675C618.256 869.021 615.372 866.939 614.043 864.514C612.808 862.272 612.731 859.686 613.573 857.294C614.962 853.346 617.858 851.729 621.351 849.957Z" fill="#FCE5B1"/>
<path d="M562.51 1009.6C565.145 1009.73 567.902 1009.82 570.006 1011.64C572.719 1013.97 572.675 1017.83 572.868 1021.1C572.475 1021.76 572.071 1022.41 571.661 1023.05C569.336 1026.67 567.548 1028.4 563.268 1029.33C561.142 1028.99 559.232 1028.37 557.466 1027.09C555.13 1025.4 553.514 1022.84 553.205 1019.94C552.923 1017.45 553.684 1014.95 555.307 1013.04C557.405 1010.57 559.359 1009.95 562.51 1009.6Z" fill="#FCE5B1"/>
<path d="M744.786 957.127C781.155 941.219 817.757 918.938 845.489 890.322C847.62 894.292 850.272 901.413 852.116 905.843C856.855 917.177 861.511 928.545 866.09 939.946C871.449 952.958 878.764 965.196 882.937 978.556C905.345 1050.29 905.694 1061.09 923.605 1175.66C938.272 1269.47 951.934 1387.74 951.934 1434.96C936.435 1440.25 908.413 1442.06 888.38 1445.2C878.447 1446.76 868.1 1447.13 858.09 1448.27C843.944 1449.89 829.217 1452.17 815.044 1453.02C809.228 1369.39 754.248 1004.51 744.786 957.127Z" fill="#FBCCA6"/>
<path d="M546.561 782.649C561.004 782.472 571.351 783.004 582.474 793.579C596.276 806.708 598.319 822.865 592.484 840.639C586.017 854.659 575.808 861.631 561.535 866.846C557.327 868.386 541.289 873.38 537.324 871.093C538.078 864.504 538.72 857.899 539.25 851.287C540.569 850.363 541.419 850.606 542.934 850.695L542.263 850.169C543.068 849.798 545.096 849.393 546.025 849.322C568.616 847.483 590.806 820.695 565.09 804.155L565.627 802.793C558.606 800.268 552.319 798.657 544.812 800.324C545.35 794.908 545.801 787.865 546.561 782.649Z" fill="#299F65"/>
<path d="M565.627 802.793C595.684 819.648 567.166 853.446 539.25 851.287C540.569 850.362 541.419 850.606 542.935 850.695L542.263 850.169C543.068 849.798 545.096 849.393 546.026 849.321C568.616 847.483 590.807 820.694 565.09 804.155L565.627 802.793Z" fill="#040A04"/>
<path d="M544.4 801.23C552.397 800.455 557.626 801.18 565.089 804.154C590.806 820.693 568.616 847.481 546.025 849.32C545.096 849.392 543.068 849.796 542.263 850.167L540.571 849.796C538.714 847.371 539.952 842.293 540.377 839.01C540.999 829.104 542.584 818.295 543.478 808.218L544.4 801.23Z" fill="#C9EC57"/>
<path d="M543.478 808.219C551.06 808.053 559.686 807.145 565.527 812.931C571.512 818.856 566.224 828.413 560.782 832.666C554.52 837.566 548.083 838.845 540.377 839.011C540.999 829.105 542.584 818.297 543.478 808.219Z" fill="#80C458"/>
<path d="M88.8112 1022.86C82.6591 1008.26 73.7941 989.365 68.9171 974.719C57.0242 939.01 42.0255 901.507 31.2449 865.693C19.4936 826.657 12.2934 773.163 23.0433 733.296C26.5857 720.156 33.955 706.446 39.9731 694.364C69.0156 630.388 131.188 596.324 190.025 564.032C209.543 553.318 230.135 541.202 250.241 530.471C242.268 544.798 242.18 558.583 248.451 573.949C282.255 656.756 353.753 704.669 442.925 706.407C440.309 734.397 427.632 763.728 416.386 789.193C403.032 819.918 387.852 849.819 370.928 878.728C364.341 890.073 356.765 901.297 349.914 912.631C347.081 907.344 342.135 903.368 341.214 901.596C337.682 893.13 324.929 874.326 323.78 866.352C320.58 844.143 327.483 813.838 322.052 791.834C315.955 767.127 302.35 715.25 287.149 695.998L286.693 696.324C289.697 703.805 294.491 712.498 297.288 720.593C301.478 730.45 303.273 741.773 306.747 751.706C319.487 788.141 317.896 819.088 317.176 857.393C313.754 851.989 309.949 846.297 307.202 840.572C309.83 816.153 302.233 779.093 291.761 756.956C280.635 733.428 262.678 710.117 244.191 691.845C239.485 687.194 235.06 682.393 230.829 677.293C218.041 660.859 202.716 648.207 186.195 635.743C180.147 631.175 172.559 624.597 165.394 621.922C180.359 633.783 197.521 647.116 211.261 660.233C218.737 667.376 224.751 678.412 231.898 685.555C273.801 727.432 302.269 770.909 301.75 832.51C295.031 823.722 292.356 812.371 287.422 801.513C272.976 769.73 253.137 741.33 226.851 718.135C192.061 687.432 159.543 664.126 111.447 666.878C135.462 622.78 165.971 604.187 208.369 579.408C213.802 576.235 219.234 573.14 224.752 570.062C228.405 568.018 234.889 565.183 237.789 562.891L237.771 561.701L236.651 561.518C231.087 563.063 211.145 574.752 205.419 578.024C157.767 605.267 134.872 620.449 107.425 667.797C89.2768 671.978 62.6343 681.762 50.0079 695.704C60.5969 688.522 71.9671 682.565 83.8998 677.947C132.672 658.749 169.257 677.659 207.749 707.825C242.893 735.372 269.847 769.879 286.261 811.59C259.362 782.044 245.905 766.956 208.647 748.644C174.048 731.634 145.923 721.762 106.69 719.946C102.274 719.741 90.1616 717.858 86.5557 719.071L86.6133 719.912C91.4333 721.302 100.568 721.097 106.076 722.066C122.049 725.372 141.711 726.568 156.947 732.077C184.164 741.911 219.074 758.523 241.909 776.192C278.732 804.674 304.069 848.196 326.266 888.257C327.579 890.627 333.842 901.995 333.202 904.071C332.541 904.309 331.044 904.802 330.508 904.315C325.868 900.101 319.778 892.482 315.841 887.958C306.442 877.26 296.191 867.343 285.189 858.301C266.952 843.052 244.67 828.827 222.544 819.935C202.422 811.845 181.635 805.466 161.419 797.498L161.037 798.567C179.298 806.767 198.31 813.102 216.565 821.242C250.265 836.269 280.562 860.333 306.638 886.181C310.491 890.001 314.669 895.705 318.402 899.835C298.483 890.566 275.228 884.221 254.139 877.903C243.066 874.586 231.546 870.987 220.322 868.429C225.399 871.092 235.212 874.459 240.801 876.513C253.367 881.098 265.998 885.505 278.689 889.73C295.345 895.245 310.672 899.525 325.82 908.8C333.92 913.76 337.361 915.549 345.18 919.511C343.786 921.925 342.857 923.079 339.031 928.241C335.574 929.957 325.238 929.154 320.958 929.038C288.756 929.414 247.939 941.269 220.216 957.593C186.944 977.183 149.25 1004.55 121.718 1031.33C114.718 1038.14 108.226 1045.13 102.651 1050.41C98.2505 1043.67 91.3506 1028.89 88.8112 1022.86Z" fill="#FCDE37"/>
<path d="M161.037 798.567C159.302 797.681 158.286 797.542 157.42 796.075C159.086 795.97 159.938 796.673 161.418 797.498L161.037 798.567Z" fill="#665D1A"/>
<path d="M77.5684 754.637C80.7751 759.565 82.7748 765.766 85.341 771.104C89.913 780.611 95.1532 790.29 100.706 799.26C125.603 839.631 158.466 874.51 197.289 901.752C208.896 910.058 221.453 916.985 233.057 925.257C216.405 923.696 177.846 893.701 164.687 882.478C133.28 855.695 103.012 812.389 85.4069 775.113C82.653 769.288 78.0832 761.06 77.5684 754.637Z" fill="black"/>
<path d="M448.769 549.521C449.908 536.2 444.186 517.55 455.915 508.253C466.805 499.623 490.313 504.746 504.253 503.355C521.217 501.661 537.63 498.421 554.522 498.52C564.964 498.87 569.327 504.71 574.293 512.709C559.095 513.283 543.85 514.283 528.618 514.076C517.013 513.928 505.979 509.473 494.328 511.619C489.173 512.569 484.621 515.705 480.989 519.407C477.649 522.811 475.161 539.471 478.262 542.534L479.736 542.518C483.741 537.939 476.572 517.446 497.751 516.354C509.302 515.758 519.207 518.739 530.351 518.996C555.347 519.572 581.081 516.256 606.056 518.442C617.915 519.479 620.644 525.297 622.77 536.1C599.03 524.953 567.633 535.008 542.282 530.107C538.444 529.366 533.87 529.312 530.033 528.761C522.604 527.695 507.141 536.662 508.481 545.162L509.435 546.02C512.374 544.911 516.513 535.517 522.263 534.433C533.243 532.365 543.753 535.691 554.821 536.101C573.601 536.796 592.702 533.789 611.304 536.57C622.715 539.097 624.752 545.298 624.774 555.926C624.808 573.235 624.697 590.411 623.468 607.687C622.538 620.749 614.311 623.678 603.232 627.155C597.657 628.905 591.849 631.031 586.141 632.199C585.449 619.032 584.751 608.573 580.671 595.799L581.286 595.361C591.069 588.44 594.44 597.26 603.027 595.732L603.426 594.824C600.148 590.721 588.4 587.941 583.229 587.399C582.437 587.321 581.64 587.26 580.843 587.233C587.132 583.218 592.021 579.863 595.547 572.897C597.17 569.697 600.17 566.646 596.478 563.844L595.658 563.899C591.954 571.103 589.319 577.017 581.806 580.693C576.186 569.935 571.392 564.519 558.724 562.57L558.01 563.8L557.457 562.825C558.365 565.516 568.136 570.322 570.739 572.963C574.271 576.546 581.756 591.502 573.878 594.01C570.318 595.145 562.406 590.555 558.027 592.011C559.106 597.698 575.184 595.594 576.663 606.385C579.901 630.023 580.444 668.451 575.218 691.336C573.451 698.966 570.495 706.28 566.459 712.997C562.517 719.581 558.132 724.83 551.687 729.082C546.347 724.968 541.879 721.076 535.692 718.246C539.646 725.433 543.503 727.521 548.552 733.324C546.374 741.723 543.832 750.184 542.7 758.778C541.28 769.547 541.273 780.821 539.732 791.53C529.658 861.574 527.275 932.366 507.104 1000.71C502.507 1016.28 500.086 1034.3 492.593 1048.82C479.965 1073.28 467.862 1095.54 442.191 1142.02C430.381 1163.41 393.734 1194.26 374.274 1220.2C354.814 1246.15 314.875 1244.7 270.956 1220.2C230.27 1197.51 235.629 1181.05 235.629 1149.73C235.629 1118.42 236.389 1114.27 261.518 1064.01C286.648 1013.75 331.541 953.861 363.5 904.681C368.245 897.277 372.933 889.841 377.565 882.366C378.827 880.334 384.113 871.895 384.811 869.919L386.127 867.61C390.455 860.5 394.62 852.615 398.703 845.29L399.459 843.783C402.231 837.925 406.857 828.534 410.068 823.075L410.433 822.05C412.751 817.554 416.983 806.624 419.727 803.18C419.795 802.77 420.183 801.696 420.328 801.258C423.051 795.45 425.655 789.581 428.141 783.667L428.8 781.712C441.332 753.385 452.106 725.649 450.539 694.043C449.843 679.985 442.543 663.811 437.527 650.472C434.503 642.454 431.904 634.281 429.741 625.987C424.666 605.998 425.073 586.452 422.535 566.557C419.263 540.906 410.357 526.668 443.906 520.482C443.903 531.101 444.04 539.629 448.769 549.521Z" fill="#FBCCA6"/>
<path d="M386.125 867.609C387.492 867.903 398.64 863.933 401.981 862.986C413.123 859.83 440.242 856.823 450.804 860.245C445.732 860.621 439.357 859.863 433.934 859.974C417.108 860.422 400.486 863.783 384.81 869.918L386.125 867.609Z" fill="#503023"/>
<path d="M429.054 836.459C435.719 835.573 460.907 834.283 465.879 837.295C464.183 837.766 436.999 838.064 433.992 837.688C432.745 836.88 430.593 836.708 429.054 836.459Z" fill="#A57657"/>
<path d="M442.856 814.121C450.038 813.197 470.962 811.668 477.517 815.234C474.5 815.755 463.317 814.808 459.257 814.863C456.395 814.908 447.199 815.649 444.991 815.489L444.819 814.747L442.856 814.121Z" fill="#A57657"/>
<path d="M428.798 781.712L429.629 781.468C432.72 780.549 438.628 777.802 441.995 776.457C449.394 773.495 460.436 771.773 468.328 771.656L468.599 772.105L469.707 771.878L469.035 772.199L468.93 771.856C467.382 773.268 455.245 773.81 451.933 774.774C444.23 777.005 435.032 779.48 428.139 783.666L428.798 781.712Z" fill="#7C4C34"/>
<path d="M442.856 814.121L444.819 814.747L444.991 815.489C432.294 816.729 422.366 819.581 410.066 823.075L410.431 822.05C422.67 818.097 430.298 816.314 442.856 814.121Z" fill="#503023"/>
<path d="M429.054 836.457C430.594 836.706 432.746 836.878 433.992 837.686C421.915 838.445 410.02 841.009 398.702 845.289L399.457 843.783C400.734 843.556 403.857 842.409 405.241 841.955C413.134 839.37 420.888 837.952 429.054 836.457Z" fill="#503023"/>
<path d="M442.99 795.068C446.742 794.038 461.378 791.491 464.742 792.848L464.884 793.878C464.141 794.343 446.469 795.666 443.881 796.043L442.99 795.068Z" fill="#7C4C34"/>
<path d="M442.99 795.068L443.881 796.043C434.666 798.075 428.642 800.096 419.725 803.18C419.793 802.77 420.181 801.696 420.326 801.259C422.713 801.264 438.676 795.916 442.99 795.068Z" fill="#503023"/>
<path d="M403.36 885.058C412.888 884.36 423.864 886.276 432.959 889.238L433.194 889.775C430.011 890.252 421.018 887.627 417.166 887.184C411.469 886.531 405.867 886.52 400.152 886.708C390.131 887.538 379.845 890.074 370.744 894.305C378.655 887.372 393.114 885.955 403.36 885.058Z" fill="#7C4C34"/>
<path d="M468.596 749.885C468.897 749.89 469.159 750.101 469.43 750.228C467.098 752.044 462.052 752.266 459.091 752.93C454.215 754.027 449.476 756.053 444.843 757.908L444.277 757.814C448.291 753.384 462.677 750.793 468.596 749.885Z" fill="#7C4C34"/>
<path d="M491.596 89.0762C493.712 90.1016 494.753 90.863 497.082 90.734L498.335 90.0496C500.694 89.8862 504.794 90.3337 507.171 90.7567L509.79 91.9909C512.52 89.4538 515.574 92.9533 519.241 93.2207L519.515 93.6072C526.092 96.0341 526.196 96.0712 532.188 99.291C572.729 144.737 576.179 168.108 582.739 225.906C573.715 215.128 565.908 212.298 551.696 210.637C543.046 209.626 522.085 211.237 515.28 216.824C514.226 218.73 512.77 220.93 512.69 223.074C510.395 224.228 510.098 224.424 507.796 223.203C508.7 220.82 508.893 220.269 509.212 217.753C501.291 225.071 491.587 249.998 491.165 261.166C491.001 265.704 491.56 270.239 492.819 274.602C495.036 282.542 500.089 292.958 503.292 300.956C507.744 311.703 511.411 323.029 516.815 333.326C520.31 339.986 528.603 348.72 529.428 356.033C531.367 373.239 508.896 385.189 493.873 384.359C482.801 383.747 481.981 379.559 473.036 375.214C465.149 372.147 447.335 379.171 440.258 371.262C437.486 368.164 436.687 363.377 436.804 359.409C436.933 355.059 440.382 351.277 443.569 348.716C445.73 346.98 448.078 345.373 449.611 343.103L449.447 342.146C443.827 340.687 440.364 344.121 436.937 348C419.488 348.403 409.756 358.237 396.765 368.532C393.066 371.463 387.852 374.728 383.774 377.278C377.816 380.972 370.886 381.687 363.991 382.585C363.143 382.695 362.763 382.583 361.966 382.913C356.217 384.154 351.213 387.667 348.092 392.653C345.795 396.273 345.366 398.634 344.6 402.809C344.057 405.237 344.421 408.949 341.898 410.015C335.353 404.324 334.187 406.064 326.37 402.023L325.368 406.284L324.34 405.4L324.8 401.392C319.909 402.671 315.997 400.088 312.072 397.446C312.977 395.339 313.917 394.147 313.679 392.146C311.796 392.982 311.203 394.23 310.46 396.183C310.134 397.04 309.827 397.905 309.541 398.776C304.024 393.84 301.039 392.885 296.234 386.544C298.03 383.187 299.13 380.925 300.584 377.416C297.884 380.307 296.228 382.006 294.305 385.457C290.124 381.407 286.569 374.2 285.567 368.339C287.738 364.39 289.791 360.882 291.532 356.7C288.049 360.983 285.761 364.173 282.662 368.723C282.049 368.219 281.441 367.707 280.84 367.189C278.063 364.783 278.539 364.418 278.303 360.991C284.788 339.693 271.802 313.912 268.212 294.494C265.889 281.931 266.675 244.324 269.27 232.149C279.206 224.177 287.734 218.119 297.479 209.456C308.034 200.633 317.652 190.605 328.047 181.639C345.969 166.37 363.87 153.599 380.643 136.803C392.819 124.61 411.347 108.579 426.107 99.8414C433.102 95.7008 454.949 94.6188 464.117 92.4688L464.671 92.3331C467.66 91.5302 472.201 91.4344 475.596 90.9654C477.951 90.8846 481.309 91.4228 483.254 90.5889L483.725 90.0014C486.312 89.0762 488.824 89.1847 491.596 89.0762Z" fill="#FBCCA6"/>
<path d="M334.73 381.863C332.639 388.136 328.886 395.255 326.371 402.024L325.369 406.285L324.341 405.402L324.8 401.393C327.6 392.808 329.451 389.244 334.73 381.863Z" fill="#160B03"/>
<path d="M509.212 217.755C511.91 218.176 512.687 217.684 515.28 216.826C514.226 218.731 512.77 220.931 512.69 223.076C510.395 224.229 510.098 224.425 507.796 223.205C508.701 220.822 508.893 220.27 509.212 217.755Z" fill="#C28F5B"/>
<path d="M323.598 285.797C326.874 285.888 329.057 284.527 331.997 283.547C345.396 279.084 351.534 270.953 361.942 262.508C373.501 253.131 388.839 248.771 403.722 250.723C417.948 252.589 427.383 262.807 435.574 273.704C436.775 275.301 437.607 275.986 437.354 277.601C437.179 279.812 437.348 281.864 436.009 283.463C433.583 284.785 432.993 284.418 431.514 285.075C428.968 288.402 410.139 292.22 405.075 292.91C391.37 294.778 365.827 294.869 354.467 287.027L353.998 286.006C352.298 285.221 352.144 284.402 351.226 282.619C336.587 289.35 327.743 288.261 311.938 287.244C309.022 287.294 306.123 286.8 303.389 285.788C310.124 285.67 316.862 285.673 323.598 285.797Z" fill="black"/>
<path d="M402.64 259.312C422.37 262.792 422.163 267.215 437.355 277.601C437.179 279.812 437.348 281.865 436.01 283.463C433.583 284.785 432.993 284.418 431.515 285.075C420.834 286.5 415.029 289.488 402.642 290.308C412.776 279.65 411.224 270.187 402.64 259.312Z" fill="#FAF9F9"/>
<path d="M368.133 269.08C367.064 277.505 367.432 283.071 372.869 290.059C365.913 288.951 360.787 288.152 353.999 286.005C352.299 285.22 352.145 284.401 351.227 282.618C357.071 278.372 362.712 273.855 368.133 269.08Z" fill="#FAF9F9"/>
<path d="M303.389 285.787C310.124 285.669 316.862 285.673 323.598 285.796L323.038 285.86C320.052 286.179 314.089 286.053 312.025 286.741L311.938 287.244C309.022 287.293 306.123 286.799 303.389 285.787Z" fill="#503023"/>
<path d="M391.253 259.9C393.5 259.736 396.731 259.884 399.056 259.919C400.323 260.954 401.512 262.08 402.613 263.289C409.947 271.465 407.126 283.264 398.936 289.916C393.869 290.515 390.66 290.59 385.627 290.631C382.825 290.492 379.448 290.496 376.956 289.23C373.884 287.675 371.567 284.949 370.527 281.666C368.635 275.85 370.201 271.744 372.745 266.76C378.958 262.807 383.951 260.769 391.253 259.9Z" fill="#1070C3"/>
<path d="M382.49 267.621C384.619 265.586 383.626 266.066 386.243 265.451C388.289 265.895 389.223 266.425 390.371 268.255L390.507 267.899L391.299 268.055C393.859 270.591 398.711 274.786 396.09 278.768C387.752 291.435 374.308 278.802 382.49 267.621Z" fill="black"/>
<path d="M382.49 267.621C384.619 265.586 383.626 266.066 386.243 265.451C388.289 265.895 389.223 266.425 390.371 268.255L389.945 268.874C388.633 270.742 388.215 271.256 386.308 271.593C384.504 270.791 383.701 269.269 382.49 267.621Z" fill="#FAF9F9"/>
<path d="M387.275 216.713C398.596 214.938 426.591 215.88 435.912 223.698C444.273 230.712 447.724 246.316 448.456 256.741C446.187 252.96 444.326 248.493 442.505 244.441C419.606 234.393 398.896 233.305 374.559 236.926C349.832 242.331 340.095 250.411 320.143 264.829C330.577 231.728 354.756 220.525 387.275 216.713Z" fill="black"/>
<path d="M389.499 220.043C399.771 219.042 419.746 220.059 429.419 223.603C436.103 226.052 438.387 232.928 440.986 239.035C435.665 237.512 428.094 234.415 422.841 233.403C403.14 229.607 383.579 230.317 364.433 235.708C347.123 241.456 340.057 246.782 325.609 257.095C340.057 230.048 360.249 223.08 389.499 220.043Z" fill="#AF7B44"/>
<path d="M326.334 317.036C342.452 302.727 353.377 301.069 373.83 307.689C387.569 312.136 402.929 312.507 416.257 306.853C422.532 304.363 427.773 299.456 433.123 296.941C414.901 314.027 396.821 318.551 372.818 310.928C353.478 304.785 343.662 306.093 327.445 318.062L326.334 317.036Z" fill="black"/>
<path d="M336.509 294.199C338.491 293.979 338.884 293.852 340.797 294.227C338.361 295.671 330.069 297.511 326.709 298.635C321.756 300.292 317.953 301.86 313.123 303.905L309.463 305.627L308.969 305.357C312.636 299.805 330.135 295.181 336.509 294.199Z" fill="black"/>
<path d="M325.658 319.581C324.055 321.233 323.821 321.606 321.844 322.672C322.05 321.221 323.138 320.407 324.237 319.127L325.658 319.581Z" fill="#503023"/>
<path d="M324.237 319.127L326.334 317.035L327.446 318.061L325.658 319.581L324.237 319.127Z" fill="#040A04"/>
<path d="M394.106 374.023C409.826 365.768 412.616 357.678 432.513 352.951C430.833 360.658 430.691 364.522 433.807 371.73C443.908 386.524 454.151 377.783 468.986 380.467C475.238 381.598 476.733 384.915 481.541 387.342C502.193 397.77 524.851 385.641 534.842 366.899C538.619 369.981 552.282 379.974 557.394 377.518C556.879 376.435 557.222 376.885 556.236 376.253L556.026 377.174L555.771 376.015L554.503 375.472C559.221 375.284 560.212 376.505 564.63 377.259C568.81 377.973 566.307 374.874 568.273 373.204L570.476 374.115C580.209 376.189 587.152 380.165 588.807 390.942C589.278 393.699 589.195 394.926 589.112 397.655C591.991 398.466 597.533 400.529 599.991 399.348C599.177 397.094 598.651 396.036 598.718 393.589L599.482 393.591L601.104 395.735L603.507 396.293C605.245 395.467 609.231 388.695 612.232 385.711L612.625 385.327C616.268 398.462 617.73 405.816 617.182 419.895C614.956 415.09 612.592 413.025 610.272 408.822C610.222 422.921 610.997 434.898 604.298 447.887C603.435 439.755 602.582 434.626 600.478 426.698C599.819 444.49 598.668 457.116 589.605 473.379C589.549 469.809 589.826 464.029 588.22 461.056C586.742 464.289 586.853 469.015 585.939 472.544C584.046 479.873 580.353 488.454 576.461 494.965C576.528 488.057 577.286 480.579 576.782 473.904C575.038 481.926 572.519 491.071 570.997 498.713C566.34 495.857 562.648 494.458 557.427 492.8L556.247 492.486C553.331 493.193 543.427 493.5 539.64 493.949C526.593 495.498 512.975 498.003 499.902 498.609C486.784 499.217 472.246 496.428 459.466 500.472C450.307 503.371 448.578 507.908 444.65 515.724C436.747 516.323 424.641 519.423 419.114 525.502C413.034 532.189 413.466 539.143 413.62 547.333C388.837 533.896 389.28 530.312 377.233 506.481C379.617 518.738 383.156 525.062 388.562 536.279C376.968 529.007 364.834 521.124 358.293 508.598C355.664 503.564 354.079 498.015 351.528 492.877L350.728 493.01C349.376 496.399 355.225 514.831 356.621 519.817C342.493 508.042 331.68 500.559 325.584 481.705C324.658 478.84 323.37 471.346 321.962 469.599L321.34 470.1C320.362 474.834 323.963 491.541 324.698 497.886C307.449 479.709 297.726 464.703 298.887 439.014C299.109 434.098 300.51 428.574 300.5 424.406L299.967 424.762C294.069 438.144 295.386 454.778 296.383 468.857C293.529 463.727 290.322 459.193 287.495 453.717C278.469 436.231 283.802 422.279 287.091 404.466C281.325 415.447 278.913 425.04 277.705 437.294C265.65 413.691 272.855 389.807 285.567 368.34C286.569 374.201 290.124 381.409 294.305 385.458C296.228 382.007 297.884 380.308 300.584 377.417C299.131 380.926 298.03 383.189 296.234 386.545C301.039 392.886 304.024 393.842 309.541 398.777C309.828 397.906 310.134 397.042 310.46 396.184C311.203 394.231 311.796 392.983 313.679 392.147C313.917 394.148 312.977 395.34 312.073 397.447C315.997 400.089 319.909 402.673 324.8 401.393L324.34 405.401L325.368 406.285L326.371 402.024C334.187 406.065 335.353 404.325 341.899 410.017C344.422 408.951 344.057 405.238 344.6 402.811C345.367 398.636 345.795 396.275 348.092 392.654C351.213 387.668 356.217 384.156 361.966 382.915C362.763 382.585 363.143 382.697 363.991 382.586C370.886 381.689 377.816 380.973 383.774 377.28C386.025 377.408 391.595 374.935 394.106 374.023Z" fill="#C08F44"/>
<path d="M394.106 374.023C409.826 365.768 412.616 357.678 432.513 352.951C430.833 360.658 430.691 364.522 433.807 371.73C421.821 372.775 409.704 373.982 397.722 375.205C396.07 375.373 395.347 374.956 394.106 374.023Z" fill="#FBCCA6"/>
<path d="M361.966 382.914L362.118 383.736C346.227 396.283 347.865 404.5 350.148 423.394C345.449 415.425 345.008 412.108 344.6 402.81C345.366 398.635 345.795 396.274 348.092 392.654C351.213 387.668 356.217 384.155 361.966 382.914Z" fill="black"/>
<path d="M570.477 374.113C580.21 376.187 587.152 380.164 588.808 390.941C588.703 395.137 588.625 400.298 586.46 404.033L585.491 404.261C584.445 403.174 584.384 401.453 584.124 399.888L584.351 399.343C583.98 389.439 584.002 382.217 575.083 377.911C573.859 377.321 571.241 375.281 570.477 374.113Z" fill="black"/>
<path d="M309.542 398.777C309.828 397.906 310.134 397.041 310.46 396.184C311.203 394.231 311.797 392.982 313.679 392.146C313.918 394.147 312.977 395.339 312.073 397.447C309.534 403.664 309.526 409.672 306.756 415.66C306.7 408.898 307.716 405.346 309.542 398.777Z" fill="black"/>
<path d="M294.305 385.457C296.229 382.006 297.885 380.307 300.584 377.416C299.131 380.925 298.03 383.188 296.235 386.545C295.241 389.235 294.046 393.031 292.404 395.243L292.736 394.243L292.347 394.511C292.71 391.078 293.308 388.748 294.305 385.457Z" fill="black"/>
<path d="M599.991 399.346C599.177 397.093 598.651 396.035 598.718 393.588L599.482 393.59L601.104 395.734C602.554 400.113 603.136 401.863 603.75 406.376L603.174 407.108L603.141 407.093L603.656 407.69C601.707 406.361 600.849 401.528 599.991 399.346Z" fill="black"/>
<path d="M556.248 492.486C555.395 489.365 555.766 485.918 556.287 482.758C557.355 485.278 557.388 489.995 557.427 492.799L556.248 492.486Z" fill="#040A04"/>
<path d="M324.34 405.4L325.368 406.284C325.209 408.55 325.237 409.101 324.547 411.219L323.999 411.083C323.536 408.665 323.871 407.793 324.34 405.4Z" fill="#4B2C07"/>
<path d="M584.351 399.343L584.124 399.888C582.081 400.388 582.33 400.675 580.702 400.078C582.402 398.946 581.904 399.306 584.351 399.343Z" fill="#7C4C34"/>
<path d="M365.506 415.616C381.735 402.896 424.88 410.676 444.805 414.197C482.078 420.784 517.458 418.684 553.22 405.67C553.445 405.456 553.667 405.243 553.894 405.03C553.125 404.374 552.849 404.296 552.391 403.394C557.786 403.183 576.882 400.049 579.285 401.286C580.397 404.136 577.446 409.53 576.273 413.143L575.946 413.301C574.977 409.917 575.603 406.107 574.717 404.454L573.272 404.217C569.806 407.635 572.608 415.883 570.974 418.537C569.618 418.41 568.959 417.876 568.306 416.563C567.254 420.046 565.731 418.954 563.91 420.765L563.921 420.957C566.241 421.284 572.541 428.531 572.203 430.904C570.753 430.821 570.232 430.255 569.042 429.406C567.78 432.367 565.62 437.834 563.943 440.335C568.045 447.252 567.769 448.205 568.245 455.986C566.484 452.737 565.848 451.026 564.585 447.517C559.22 453.249 560.023 446.486 558.152 454.455C559.863 457.124 560.389 461.764 560.837 464.942C561.834 469.717 562.326 474.584 562.304 479.462C559.719 470.905 558.578 466.85 554.348 459.036C553.459 461.361 552.904 463.413 551.274 465.253C549.829 465.748 549.348 465.675 547.857 465.691C544.772 467.569 546.181 469.323 543.941 471.915C545.93 477.413 546.118 481.25 545.551 487.112C544.369 483.161 542.692 476.453 541.427 472.925C535.41 478.066 535.812 475.431 529.474 474.733C531.727 480.556 532.9 484.624 533.976 490.799C530.71 485.073 529.962 482.058 527.524 476.135L526.996 476.134C525.805 476.121 524.013 476.061 522.892 475.752C518.621 474.574 516.11 476.776 512.983 477.246C511.994 475.683 511.064 474.478 509.371 473.974C508.991 475.734 509.414 475.704 510.33 477.777C508.407 478.79 496.813 476.565 491.573 476.901L490.466 477.757C485.34 479.116 474.494 482.277 469.799 479.373L468.398 482.213C463.027 482.675 458.026 482.666 452.646 482.711C451.816 488.923 452.286 494.977 451.273 501.228C450.016 496.17 449.775 492.829 449.657 487.608L446.852 487.928C444.483 494.088 444.065 494.971 437.143 495.144L434.077 495.379C434.598 499.257 434.687 502.649 434.827 506.54C432.437 501.007 432.168 498.822 431.301 492.737C429.57 492.224 427.72 491.642 425.933 491.384C422.441 490.878 419.543 492.451 416.95 489.973C417.394 495.336 418.468 500.253 419.505 505.521C416.232 499.269 415.742 497.112 414.341 490.099C408.456 485.451 404.709 484.693 397.969 481.464L397.748 490.669C395.286 481.08 395.773 477.237 395.792 467.247C395.01 471.252 395.302 476.18 395.465 480.319C393.067 478.625 384.618 473.023 383.779 470.921L383.559 469.994C380.656 469.448 380.973 469.319 379.156 467.313C377.838 467.741 377.601 467.784 376.223 467.968C375.008 466.458 375.358 463.485 375.206 460.99C374.6 464.562 375.354 468.857 374.294 472.258C372.64 468.944 373.027 461.253 373.043 457.319C372.493 458.124 372.76 457.852 371.85 458.313C369.219 456.493 363.685 445.54 362.358 442.201C361.462 443.455 361.576 443.459 360.161 444.012L359.753 443.092C360.498 439.722 361.901 437.226 363.418 434.136C362.078 431.615 362.075 416.61 365.506 415.616Z" fill="#FDBE9F"/>
<path d="M365.507 415.616C381.735 402.896 424.88 410.676 444.805 414.197C482.079 420.784 517.458 418.684 553.22 405.67C553.445 405.456 553.668 405.243 553.895 405.03C553.125 404.374 552.849 404.296 552.392 403.394C557.787 403.183 576.882 400.049 579.285 401.286C580.398 404.136 577.447 409.53 576.273 413.143L575.946 413.301C574.978 409.917 575.603 406.107 574.717 404.454L573.272 404.217C569.806 407.635 572.608 415.883 570.975 418.537C569.618 418.41 568.959 417.876 568.306 416.563C567.946 413.509 568.533 411.329 567.525 408.383L566.413 408.031C562.316 409.453 561.186 409.49 556.801 409.768C540.277 439.754 518.002 453.603 483.618 454.871C456.52 455.87 426.588 450.771 403.004 436.747C393.213 430.924 384.832 422.122 376.509 414.461C374.001 414.996 367.597 417.437 366.73 417.428L365.507 415.616Z" fill="black"/>
<path d="M389.781 412.119C418.591 413.312 446.291 419.33 474.865 422.093C496.807 424.216 518.505 418.576 539.942 414.428L540.205 415.705C539.829 421.696 538.87 431.523 531.088 432.656C528.882 430.413 530.258 425.171 528.734 422.908C522.547 430.42 536.842 436.779 513.918 442.774C513.623 437.594 513.189 432.422 512.616 427.264L511.927 427.199L512.103 426.262C510.397 431.265 511.266 438.655 510.635 443.93C504.091 447.222 499.577 447.784 492.234 448.104C491.949 444.786 491.004 431.191 490.218 429.117C488.546 432.837 489.107 444.209 488.733 448.739C483.696 449.667 473.473 451.4 469.125 448.513C463.365 444.687 467.047 432.197 464.896 427.764L464.011 427.758C461.892 431.553 463.991 442.324 462.583 445.534C460.765 449.68 449.855 447.805 446.712 445.382C443.787 443.126 443.47 442.952 442.648 439.092C441.073 439.619 440.824 439.854 439.501 440.763C436.307 443.011 429.448 443.429 426.302 440.877C419.648 435.48 420.705 427.858 419.782 420.412L418.888 420.382C417.722 422.92 417.743 429.413 417.599 432.456C416.718 433.567 416.253 433.863 414.736 433.981C403.611 434.849 402.755 422.52 402.141 415.135L401.934 416.096C401.144 419.697 401.294 421.014 398.321 422.909C392.985 423.488 390.983 416.228 389.781 412.119Z" fill="#FAF9F9"/>
<path d="M439.501 440.764C439.56 437.219 439.152 426.274 441.471 424.184L442.253 424.428C442.752 427.298 442.702 435.928 442.648 439.093C441.073 439.621 440.824 439.855 439.501 440.764Z" fill="#3B3837"/>
<path d="M539.942 414.429C542.605 413.987 542.567 413.498 544.261 414.566C544.983 416.652 545.048 415.942 544.632 417.888C543.212 418.999 543.98 418.72 542.311 418.909C541.112 418.172 540.813 417.035 540.205 415.706L539.942 414.429Z" fill="#FAF9F9"/>
<path d="M414.341 490.099C414.141 484.367 413.375 477.45 415.399 472.176L415.981 472.154C417.022 475.727 416.896 485.751 416.95 489.973C417.395 495.336 418.469 500.253 419.506 505.521C416.232 499.269 415.742 497.112 414.341 490.099Z" fill="#503023"/>
<path d="M433.978 473.891C434.04 481.156 433.463 488.191 434.077 495.379C434.599 499.257 434.688 502.649 434.828 506.54C432.438 501.007 432.168 498.822 431.302 492.737C431.252 485.773 431.79 480.547 433.978 473.891Z" fill="black"/>
<path d="M547.927 447.266C553.271 452.65 554.426 455.246 557.792 461.892C558.717 463.741 558.606 463.954 560.837 464.941C561.834 469.716 562.327 474.584 562.304 479.462C559.719 470.905 558.578 466.849 554.348 459.035C552.286 455.595 549.246 450.912 547.927 447.266Z" fill="black"/>
<path d="M535.363 458.881C540.027 463.825 541.198 465.685 543.941 471.914C545.931 477.412 546.118 481.249 545.552 487.111C544.369 483.161 542.693 476.452 541.428 472.924C540.047 468.587 537.239 463.246 535.363 458.881Z" fill="black"/>
<path d="M376.773 443.426C376.81 449.525 375.167 455.735 375.31 460.419L375.207 460.99C374.601 464.561 375.355 468.857 374.295 472.258C372.641 468.944 373.027 461.253 373.043 457.318C374.008 452.08 374.753 448.374 376.773 443.426Z" fill="black"/>
<path d="M395.793 467.246C395.995 465.177 395.968 462.837 397.039 461.174C398.238 462.911 397.921 478.207 397.97 481.463L397.749 490.668C395.287 481.08 395.773 477.236 395.793 467.246Z" fill="black"/>
<path d="M564.585 447.518C563.428 444.397 558.589 436.181 558.894 434.516C560.992 436.043 562.404 438.238 563.943 440.335C568.045 447.252 567.769 448.206 568.245 455.986C566.484 452.737 565.847 451.026 564.585 447.518Z" fill="black"/>
<path d="M449.657 487.607C449.916 485.084 450.397 479.649 452.651 478.16C453.282 479.725 452.889 480.998 452.646 482.71C451.816 488.922 452.286 494.975 451.273 501.227C450.016 496.169 449.775 492.827 449.657 487.607Z" fill="#040A04"/>
<path d="M523.563 467.068C526.337 470.071 527.238 471.285 529.474 474.733C531.728 480.555 532.901 484.624 533.976 490.799C530.711 485.073 529.963 482.057 527.525 476.135C525.654 472.579 524.919 470.865 523.563 467.068Z" fill="black"/>
<path d="M363.418 434.135C365.236 431.79 366.949 429.511 368.961 427.326C366.972 431.663 363.907 437.908 362.358 442.2C361.462 443.454 361.576 443.458 360.161 444.011L359.753 443.091C360.498 439.721 361.901 437.225 363.418 434.135Z" fill="black"/>
<path d="M437.144 495.144C441.428 491.803 441.411 488.953 446.852 487.928C444.483 494.087 444.065 494.97 437.144 495.144Z" fill="#FBCCA6"/>
<path d="M563.921 420.957C566.241 421.284 572.541 428.531 572.203 430.904C570.753 430.821 570.232 430.255 569.042 429.406C566.457 426.723 565.283 424.325 563.921 420.957Z" fill="black"/>
<path d="M558.152 454.455C559.863 457.124 560.389 461.765 560.837 464.942C558.606 463.955 558.717 463.741 557.792 461.893C558.002 460.327 558.058 456.308 558.152 454.455Z" fill="#4B2C07"/>
<path d="M375.31 460.418C376.431 461.917 378.459 465.556 379.157 467.311C377.838 467.74 377.602 467.782 376.224 467.967C375.009 466.457 375.359 463.484 375.207 460.989L375.31 460.418Z" fill="#C28F5B"/>
<path d="M496.591 472.771C490.853 474.409 463.83 475.448 461.017 471.464C462.685 471.149 482.264 471.74 486.069 471.707C488.513 471.399 497.867 470.339 499.603 471.618C499.142 472.471 497.515 472.69 496.591 472.771Z" fill="#040A04"/>
<path d="M486.068 471.707C488.512 471.399 497.866 470.339 499.602 471.618C499.142 472.471 497.514 472.69 496.59 472.771C494.515 471.4 489.438 471.999 486.068 471.707Z" fill="#160B03"/>
<path d="M337.643 431.588C338.351 432.297 338.46 432.5 338.595 433.526C338.963 436.323 338.107 440.298 337.91 443.181C337.62 447.981 337.607 452.794 337.87 457.597C338.287 464.244 339.665 471.051 340.927 477.596L340.389 478.002C334.9 464.489 332.346 445.399 337.643 431.588Z" fill="black"/>
<path d="M383.559 469.994L383.779 470.921C382.396 490.726 384.245 492.243 386.822 510.218C383.404 502.779 376.312 475.966 383.559 469.994Z" fill="black"/>
<path d="M316.839 428.346C317.491 429.993 317.07 443.095 317.109 446.39C317.154 450.199 318.993 462.166 318.215 464.362C313.618 458.597 314.233 435.072 316.839 428.346Z" fill="#040A04"/>
<path d="M358.032 455.561L358.444 455.958C359.63 459.782 358.467 465.419 358.879 469.609C359.285 473.734 362.733 487.937 362.396 490.188C360.055 487.774 359.223 483.725 358.479 480.544C356.961 474.046 354.264 461.633 358.032 455.561Z" fill="black"/>
<path d="M369.231 389.236C369.086 392.233 364.924 395.44 363.034 399.476C360.591 404.691 360.538 410.184 358.556 414.51C355.688 403.618 360.489 395.359 369.231 389.236Z" fill="black"/>
<path d="M589.461 419.855C590.624 420.173 590.585 420.269 591.509 421.085C593.807 426.361 594.018 440.736 592.777 446.539L591.897 446.53C590.745 442.841 590.219 425.298 589.461 419.855Z" fill="#040A04"/>
<path d="M434.921 385.145C435.166 385.37 435.44 385.884 435.635 386.198C434.279 391.316 430.598 400.909 428.789 406.565C424.75 402.603 431.9 388.924 434.921 385.145Z" fill="black"/>
<path d="M526.776 385.893C532.399 387.204 539.043 397.555 538.236 403.301C537.673 403.368 538.05 403.366 537.143 403.016C534.911 398.487 527.358 388.142 526.776 385.893Z" fill="black"/>
<path d="M468.158 389.719L468.736 390.431C467.067 395.539 465.764 399.055 465.263 404.635C465.056 406.941 465.472 409.491 464.298 410.77C459.874 405.634 463.915 394.189 468.158 389.719Z" fill="black"/>
<path d="M400.709 383.578L401.411 384.537C395.222 392.165 393.711 394.404 390.176 403.266L389.444 402.264C389.018 394.807 394.824 387.602 400.709 383.578Z" fill="black"/>
<path d="M547.21 383.717C553.154 384.387 560.101 393.785 561.502 399.34C559.11 397.639 547.654 386.294 547.21 383.717Z" fill="black"/>
<path d="M418.198 383.73C418.211 384.443 418.327 384.54 418.042 385.065C414.431 391.727 411.971 397.314 409.823 404.565C406.598 397.481 412.865 388.138 418.198 383.73Z" fill="black"/>
<path d="M383.065 387.432L383.642 387.944C383.585 389.57 378.538 394.168 377.475 396.398C375.826 399.857 374.749 403.276 372.913 406.572C369.063 401.302 378.834 390.546 383.065 387.432Z" fill="black"/>
<path d="M481.343 390.186C481.714 391.291 481.503 408.934 481.385 410.855L480.663 411.076C477.696 404.828 477.551 396.095 481.343 390.186Z" fill="black"/>
<path d="M510.33 477.776C509.414 475.703 508.992 475.733 509.372 473.973C511.065 474.477 511.995 475.681 512.984 477.245C516.071 484.195 516.4 486.484 517.512 493.87C513.091 487.896 513.191 482.115 510.33 477.776Z" fill="black"/>
<path d="M576.317 442.25C576.412 442.344 576.522 442.429 576.605 442.533C580.37 447.195 579.041 462.705 578.183 468.275L577.242 468.154C576.417 459.706 576.816 450.793 576.317 442.25Z" fill="black"/>
<path d="M400.937 502.09C402.682 503.418 407.956 522.666 409.405 526.258C408.915 525.872 408.449 525.468 408.046 524.99C403.435 519.529 400.591 509.137 400.937 502.09Z" fill="black"/>
<path d="M512.345 390.867C518.776 390.823 521.416 403.798 521.238 408.903C519.781 407.416 517.664 399.054 515.705 396.406C514.757 395.124 512.485 392.239 512.345 390.867Z" fill="black"/>
<path d="M455.261 387.891C455.488 388.18 455.715 388.468 455.943 388.757C454.381 394.654 452.03 403.445 451.434 409.121L450.36 408.004C449.688 402.7 452.434 392.457 455.261 387.891Z" fill="black"/>
<path d="M563.838 382.514C570 383.12 574.994 392.099 576.954 397.195C575.536 396.559 565.36 384.636 563.838 382.514Z" fill="black"/>
<path d="M443.118 390.217C443.743 394.883 442.331 402.326 440.281 406.637C438.576 401.207 439.897 394.841 443.118 390.217Z" fill="black"/>
<path d="M499.775 393.943C504.433 395.711 505.618 406.793 504.619 411.19C502.735 411.167 502.474 402.101 501.756 400.094C501.041 398.096 500.571 396.03 499.775 393.943Z" fill="black"/>
<path d="M469.799 479.373C471.009 482.629 471.456 490.705 469.618 493.789C467.556 492.225 468.336 484.868 468.398 482.213L469.799 479.373Z" fill="black"/>
<path d="M490.466 477.757L491.573 476.9C493.297 483.301 494.598 490.029 494.638 496.681C492.296 490.898 490.605 484.005 490.466 477.757Z" fill="black"/>
<path d="M383.051 17.4349C413.282 16.4146 463.016 22.1013 488.857 38.7648C459.521 38.0008 411.495 45.3898 385.077 58.6963C349.023 75.3907 337.252 108.889 316.373 138.131C293.429 170.265 280.114 178.936 267.297 218.557C259.162 139.905 339.94 49.9932 414.957 34.878C417.63 34.3393 420.524 33.9043 423.233 33.5255C433.05 32.1104 442.986 31.693 452.889 32.2798C455.672 32.4477 465.916 33.912 467.27 33.514L467.291 32.7217C462.65 28.8323 448.989 29.769 443.033 28.6025C436.372 27.2983 429.259 25.3482 422.68 24.4525C386.877 19.5779 352.564 26.9548 322.22 46.678C285.463 69.4134 267.501 97.7822 250.379 136.747C241.768 156.345 237.34 167.761 232.699 188.354C224.075 216.627 226.667 248.698 228.18 277.726C208.511 249.857 202.1 208.507 207.627 175.327C215.932 125.472 253.189 75.9438 292.996 46.9557C286.059 49.1355 277.789 55.642 272.326 60.6315C246.777 83.966 226.005 113.663 212.716 145.643C200.367 175.47 198.387 210.731 204.777 242.201C206.774 252.032 214.499 266.926 219.917 275.346C224.619 282.651 228.656 286.454 232.197 294.845C222.96 290.272 220.603 289.228 210.376 288.513C163.371 224.375 180.619 143.547 230.295 85.8337C269.274 40.5477 324.393 20.7549 383.051 17.4349Z" fill="#E7B75A"/>
<path d="M277.529 443.986C280.037 447.203 280.701 451.586 282.539 455.196C285.19 460.401 296.295 476.407 301.166 479.632L301.609 479.278L301.072 475.607L301.418 475.222C304.713 478.858 307.276 483.275 310.124 487.271C316.034 495.466 323.427 502.482 331.921 507.953L328.585 499.138C340.828 513.954 347.559 519.329 364.546 528.407C363.596 525.835 362.444 523.322 361.362 520.802C366.759 526.343 372.129 531.477 378.774 535.502C378.249 539.881 378.224 544.207 378.857 548.578C382.225 571.811 401.352 586.113 418.761 599.253C421.431 623.838 427.12 646.507 436.248 669.552C430.173 669.214 424.124 668.511 418.133 667.448C403.656 664.458 389.917 661.202 376.242 655.471C333.45 637.542 304.4 606.385 287.075 563.666C281.639 550.262 280.17 535.014 285.875 521.465C287.89 527.897 289.968 546.825 293.355 550.316L293.97 549.921C295.424 543.383 293.015 534.275 292.077 527.627C289.862 510.756 287.217 493.944 284.145 477.207C282.069 466.131 279.18 455.124 277.529 443.986Z" fill="#FBCCA6"/>
<path d="M107.755 1052.2C149.461 1013.26 222.405 949.37 291.277 939.692C303.795 937.931 317.088 935.511 329.891 936.757C330.437 936.812 330.983 936.873 331.528 936.94C323.465 946.275 322.723 949.431 316.218 959.332C309.372 969.542 302.72 979.885 296.263 990.345C289.541 1001.49 282.814 1013.6 276.256 1024.87C270.232 1035.23 260.152 1048.76 255.263 1062.47C250.374 1076.17 252.48 1195.24 263.03 1214.71C233.28 1199.06 209.821 1179.46 177.756 1149.13C145.691 1118.81 132.54 1087.14 123.601 1075.36C114.662 1063.57 113.131 1056.94 107.755 1052.2Z" fill="#FBCCA6"/>
<path d="M501.757 239.872C526.936 226.181 562.891 219.276 585.048 242.039C586.748 255.381 587.451 260.195 591.166 273.202C587.462 272.567 583.731 271.537 580.231 272.898L580.459 273.623C584.417 275.357 587.13 275.049 591.443 275.12C593.536 282.867 595.291 290.942 597.909 298.48C604.011 316.075 611.872 333.703 612.719 352.599C613.218 363.58 611.64 366.354 616.152 376.505C613.954 378.352 613.583 378.653 610.959 379.77C611.435 382.334 611.535 382.983 612.625 385.327L612.232 385.71C609.231 388.695 605.245 395.466 603.507 396.293L601.104 395.735L599.482 393.59L598.718 393.588C598.651 396.035 599.177 397.093 599.991 399.347C597.533 400.529 591.991 398.465 589.112 397.654C589.195 394.926 589.278 393.698 588.807 390.941C587.152 380.164 580.209 376.188 570.476 374.114L568.273 373.204C566.307 374.873 568.81 377.973 564.63 377.258C560.212 376.504 559.221 375.283 554.504 375.472C548.289 373.049 541.092 369.015 535.016 365.889C538.251 345.684 529.765 344.001 520.446 328.166C517.605 323.337 514.288 314.259 512.026 308.735C507.91 298.913 503.974 289.017 500.218 279.052C503.939 278.998 507.652 278.814 511.319 279.432C509.15 279.449 504.179 279.286 502.38 279.973C504.379 281.636 511.494 282.009 514.359 282.254C530.141 283.607 547.24 283.816 561.867 276.967C564.154 275.895 568.062 272.991 568.832 270.534L569.828 269.779C570.626 268.001 570.227 265.976 570.083 263.943C574.346 265.488 580.829 266.325 585.198 264.944L586.089 264.171L586.017 263.013C583.038 260.642 577.126 259.899 574.833 258.256C571.395 255.595 568.361 252.643 564.979 249.878C556.403 242.868 545.79 240.516 534.975 241.576C516.918 243.345 504.257 256.311 498.556 273.248C494.444 263.605 497.124 251.356 500.864 242.023C501.153 241.302 501.451 240.585 501.757 239.872Z" fill="#FBCCA6"/>
<path d="M574.584 284.473L575.365 284.78C572.226 290.848 561.308 296.591 554.797 298.385C540.461 302.335 527.586 299.083 514.87 291.917C513.829 291.212 514.133 291.506 513.418 290.534C516.818 290.743 522.724 294.07 526.377 295.056C546.079 300.375 558.811 295.72 574.584 284.473Z" fill="#070101"/>
<path d="M316.993 143.297C321.094 138.014 323.919 132.555 327.391 126.903C336.804 111.58 344.596 97.0529 356.913 83.8048C379.862 58.7317 410.851 49.9068 443.581 45.7281C471.879 42.1154 504.705 37.6643 527.957 58.8031C534.859 65.0783 540.138 75.7832 538.749 85.265C538.281 88.4582 536.484 91.6476 536.561 94.8768L537.437 95.4012L540.242 94.6902C546.636 97.1277 550.996 99.3198 556.768 102.96C549.696 101.613 539.275 99.1792 532.188 99.2916C526.196 96.0717 526.093 96.0346 519.515 93.6077L521.106 93.1288C524.777 85.3923 515.952 74.008 508.703 71.0196C493.802 64.8773 475.39 69.1381 460.802 74.4372C434.583 84.1476 411.773 101.509 390.692 119.489C380.984 127.769 371.23 138.288 361.472 146.454C346.557 158.937 331.426 171.288 316.461 183.71C322.503 168.725 328.332 158.476 340.581 147.687C344.99 143.804 350.535 138.91 354.282 134.489C365.498 121.257 373.303 106.793 386.491 95.1033C396.503 86.2301 406.731 79.8231 419.101 74.7002C427.045 71.2517 435.468 69.0329 443.669 66.291C463.078 59.7777 484.359 51.0465 504.82 58.8906C512.394 61.7943 520.26 68.3314 524.109 75.6409C526.259 79.7245 526.432 90.6515 527.977 93.714C529.324 92.7761 529.259 92.5313 529.632 90.8741C533.783 72.4067 513.698 54.6254 496.236 53.1585C467.055 50.707 415.295 69.4283 391.773 86.4239C368.809 103.016 357.042 131.579 333.216 149.666L332.63 149.03L333.896 146.945L333.656 146.443L333.914 146.721L332.662 146.59L333.576 147.331C331.563 146.262 330.47 147.225 327.624 148.067C325.046 145.078 323.531 143.115 319.504 142.247L317.91 143.522L316.993 143.297Z" fill="#EBBA5C"/>
<path d="M283.033 509.324L283.827 509.736C285.261 516.027 280.376 520.972 278.649 526.895C277.39 531.211 277.19 535.808 277.178 540.276C277.098 568.363 300.255 604.227 319.666 623.806C344.546 648.9 377.109 664.648 411.588 671.254C420.411 672.942 429.173 674.305 438.177 674.349C442.508 683.568 443.565 692.018 442.989 702.095C435.16 702.173 427.336 701.68 419.578 700.622C413.894 700.03 408.155 699.415 402.543 698.314C357.213 689.421 306.561 659.869 280.54 621.065C267.113 601.038 244.129 568.369 249.28 543.393C250.038 539.718 251.315 536.657 253.635 533.678C256.987 529.373 278.11 512.587 283.033 509.324Z" fill="#FCDE37"/>
<path d="M267.49 422.363C234.736 451.654 199.288 378.99 192.168 354.184C185.342 330.406 185.148 282.69 223.796 297.1C242.996 304.257 238.415 323.146 253.044 333.972L253.709 334.46C254.558 339.528 254.396 343.864 254.347 348.911C254.315 352.317 252.88 361.191 256.487 362.511C258.482 361.833 259.316 360.088 260.606 358.266C262.344 360.086 262.706 360.996 263.838 363.212C259.636 372.974 261.776 379.874 263.246 389.921C263.661 392.757 263.714 398.244 263.776 401.264L268.846 397.189C266.861 406.185 266.494 413.248 267.49 422.363Z" fill="#FBCCA6"/>
<path d="M203.198 310.665C215.237 308.897 224.508 321.575 230.429 330.233C237.294 339.082 240.16 349.772 235.815 360.673C228.79 378.302 255.775 381.947 253.582 390.755L252.8 391.015C249.111 389.832 235.382 380.195 232.851 375.592C227.584 366.016 232.144 356.708 234.665 346.856C232.461 341.688 227.947 334.97 224.853 330.108C207.675 307.124 197.729 310.622 200.792 339.193C202.748 357.439 211.07 371.367 220.571 386.418C217.339 383.945 215.527 382.667 213.123 379.227C203.745 365.81 186.712 322.405 203.198 310.665Z" fill="black"/>
<path d="M398.041 26.8489C411.118 26.598 416.642 27.2652 429.467 29.4255C350.565 36.7638 276.349 119.502 257.602 193.691C253.079 211.587 252.191 230.868 248.476 249.05C247.274 255.074 246.011 259.548 244.278 265.458C239.146 250.728 235.939 241.107 235.286 225.319C234.227 199.667 237.206 181.845 246.207 157.828C257.294 128.245 270.854 97.9285 293.144 74.8072C320.781 46.141 358.063 27.9788 398.041 26.8489Z" fill="#EABA5B"/>
<path d="M315.591 972.798C321.506 972.936 330.115 970.6 336.569 970.195L336.531 970.854L336.714 970.201L337.617 970.45L336.596 970.915L337.611 970.345L336.513 970.284L336.485 970.959C332.563 972.1 318.81 974.348 314.822 973.756L315.591 972.798Z" fill="#503023"/>
<path d="M316.993 143.298L317.91 143.523L319.504 142.248C323.531 143.116 325.046 145.079 327.624 148.068C330.47 147.226 331.563 146.263 333.576 147.332L332.662 146.591L333.914 146.722L333.655 146.445L333.896 146.946L332.63 149.032L333.216 149.667C328.315 156.862 323.38 159.362 318.114 169.703C315.413 175.005 311.761 188.194 310.085 190.085C299.538 201.978 283.278 215.284 270.942 225.125C275.236 195.585 288.44 177.564 307.332 155.566C310.587 151.777 313.457 147.326 316.993 143.298Z" fill="#E2A240"/>
<path d="M262.142 194.965C262.601 193.097 262.864 191.722 263.687 189.949C263.583 192.564 263.537 196.377 263.212 198.883C262.489 209.632 261.811 212.32 264.736 222.192C267.137 230.295 263.717 262.427 260.624 269.843C251.025 292.854 249.57 302.674 251.902 327.631C237.137 310.984 230.571 273.738 231.914 252.16C231.343 249.149 231.325 243.182 231.22 239.905L232.297 238.104C232.491 239.306 232.939 241.617 233.018 242.733C234.677 248.059 238.144 270.513 244.588 271.353C251.103 265.578 255.791 236.699 256.778 227.455C257.972 216.274 259.799 206.069 262.142 194.965Z" fill="#C08F44"/>
<path d="M231.22 239.905L232.297 238.104C232.491 239.306 232.939 241.616 233.018 242.733L232.328 243.126C232.254 246.14 232.117 249.152 231.914 252.159C231.343 249.149 231.325 243.182 231.22 239.905Z" fill="#A57657"/>
<path d="M262.143 194.965C262.602 193.097 262.865 191.722 263.687 189.949C263.583 192.564 263.537 196.377 263.212 198.883C263.039 196.869 263.095 196.685 262.143 194.965Z" fill="#A57657"/>
<path d="M566.889 136.502C587.85 158.438 601.42 178.578 601.79 210.955C601.868 218.092 600.811 224.937 597.489 231.241C596.055 231.397 596.171 231.141 594.643 230.395C594.344 232.047 596.082 233.166 595.999 233.679C595.28 238.414 594.028 245.817 593.641 250.285L592.478 250.151C586.526 205.998 588.259 177.3 566.889 136.502Z" fill="#E2A240"/>
<path d="M383.713 538.514C386.144 540.018 390.721 543.763 393.396 543.995C393.266 542.842 393.155 541.888 393.325 540.73C396.96 541.869 401.07 546.115 404.47 548.147C407.458 549.931 410.839 551.234 414.043 552.587C416.354 563.091 417.353 576.812 417.582 587.626C417.603 588.871 417.961 590.178 417.124 591.136C411.143 585.771 404.191 581.463 398.602 575.677C388.112 564.818 383.423 553.55 383.713 538.514Z" fill="#FBCCA6"/>
<path d="M539.429 102.344C547.094 102.627 561.081 107.804 566.911 112.758C590.286 132.618 598.519 158.578 602.212 187.23C599.748 184.92 592.44 160.714 587.291 156.35C585.17 154.553 580.077 146.246 577.187 143.38C564.054 130.348 552.77 114.992 539.429 102.344Z" fill="#EBBA5C"/>
<path d="M269.1 429.381C272.187 433.493 278.821 479.94 279.927 487.825C272.567 479.922 263.662 468.817 262.035 458.017C261.421 453.945 262.251 448.794 261.065 444.956C259.049 452.237 259.29 458.675 259.078 466.229C257.206 462.747 255.619 459.622 254.426 455.845C253.342 452.413 252.766 447.83 251.257 444.735L250.7 445.231C249.998 449.445 249.892 451.427 249.812 455.728C244.269 448.113 242.015 442.698 239.87 433.634C241.726 434.113 243.603 434.505 245.496 434.808C254.082 436.194 262.007 434.503 269.1 429.381Z" fill="#AF7B44"/>
<path d="M268.715 450.031C269.729 455.863 270.334 461.999 270.007 467.922C269.878 467.698 269.744 467.476 269.621 467.249C267.226 462.815 267.344 454.737 268.715 450.031Z" fill="#040A04"/>
<path d="M533.142 250.95C546.538 249.151 549.294 269.812 541.929 277.452C538.323 281.193 528.766 280.104 523.839 279.986C512.656 279.312 511.002 273.654 510.668 263.514C516.137 255.218 524.098 253.473 533.142 250.95Z" fill="#1070C3"/>
<path d="M522.576 259.246C523.958 257.311 524.184 256.844 526.294 255.821C529.685 255.672 530.217 256.7 532.169 259.389C535.441 261.898 536.826 264.579 535.59 268.987C533.363 275.72 522.596 275.08 520.036 268.963C518.919 266.295 519.63 260.307 522.576 259.246Z" fill="black"/>
<path d="M522.576 259.246C523.958 257.311 524.183 256.844 526.294 255.821C529.684 255.672 530.216 256.7 532.169 259.389C531.893 259.679 531.612 259.966 531.328 260.249C529.598 261.95 528.892 262.501 526.565 262.488C524.32 261.636 524.171 261.189 522.576 259.246Z" fill="#FAF9F9"/>
<path d="M512.69 223.075L512.865 223.751C514.664 221.364 516.285 218.603 519.016 217.681C533.572 212.764 554.553 212.131 568.716 218.415C577.928 222.505 580.957 228.129 584.201 236.933C579.999 233.269 575.238 230.295 570.105 228.123C546.481 218.116 526.054 225.495 503.942 234.415C505.217 229.876 505.938 227.495 507.796 223.204C510.098 224.424 510.395 224.228 512.69 223.075Z" fill="#AF7B44"/>
<path d="M262.863 273.428C264.306 277.111 263.096 289.799 263.546 294.321C263.687 297.118 266.33 301.289 266.827 303.701C269.311 315.752 267.067 344.009 258.775 353.029C259.345 344.248 258.319 336.384 256.109 327.893C250.152 304.993 254.563 294.009 262.863 273.428Z" fill="#C08F44"/>
<path d="M260.606 358.266C266.908 347.022 271.003 334.615 271.561 321.662C274.281 331.985 276.424 341.642 276.924 352.337C277.018 354.333 277.25 359.516 278.303 360.993C278.539 364.42 278.063 364.785 280.84 367.19C281.441 367.709 282.049 368.22 282.662 368.724C278.383 376.071 272.076 385.87 267.053 392.539C267.595 385.593 266.773 381.812 266.638 375.14C266.488 367.694 267.753 364.274 266.452 356.524C265.594 358.759 264.722 360.988 263.838 363.212C262.706 360.997 262.344 360.086 260.606 358.266Z" fill="#C08F44"/>
<path d="M608.379 631.879L608.877 632.289C608.905 637.532 602.205 652.759 599.598 657.748C596.392 663.883 592.672 667.881 585.956 670.03C584.66 667.815 586.028 643.274 586.122 639.149C592.882 635.572 601.021 633.922 608.379 631.879Z" fill="#FBCCA6"/>
<path d="M542.39 250.117C558.772 253.302 557.41 254.5 570.083 263.944C570.227 265.977 570.626 268.002 569.828 269.78L568.832 270.535C558.268 276.487 555.987 277.858 544.057 279.357C551.298 268.016 550.278 260.53 542.39 250.117Z" fill="#FAF9F9"/>
<path d="M185.962 252.836C193.305 267.467 195.676 274.262 206.619 287.968L206.485 288.654L204.172 289.552L196.16 293.291C189.108 281.377 186.193 266.518 185.962 252.836Z" fill="#AF7B44"/>
<path d="M485.461 73.4003C502.471 71.8593 514.432 74.8488 519.242 93.2226C515.574 92.9552 512.52 89.4557 509.79 91.9928C507.306 82.2359 493.674 76.9463 485.461 73.4003Z" fill="#AF7B44"/>
<path d="M466.816 78.8424C481.858 71.2671 496.673 79.4637 507.171 90.7583C504.794 90.3352 500.694 89.8878 498.335 90.0512C486.342 82.1237 480.995 80.8291 466.816 78.8424Z" fill="#AF7B44"/>
<path d="M461.967 80.7324C475.178 84.0408 478.177 81.9356 491.597 89.0768C488.824 89.1854 486.312 89.0769 483.725 90.0021L483.254 90.5896C479.555 85.841 458.423 84.8919 452.043 84.6322C455.34 83.3936 458.683 82.0281 461.967 80.7324Z" fill="#AF7B44"/>
<path d="M431.988 95.2119C436.735 91.9162 445.107 87.6565 450.881 87.3625C458.272 86.9854 468.786 87.8398 475.596 90.9666C472.202 91.4356 467.661 91.5314 464.672 92.3343C459.049 88.4328 438.944 93.507 431.988 95.2119Z" fill="#C28F5B"/>
<path d="M500.218 279.052C499.543 275.869 499.386 275.063 501.554 271.867C502.996 269.742 506.236 266.077 508.038 264.234C508.696 272.497 508.34 272.723 512.958 279.332C512.34 279.404 511.907 279.517 511.319 279.432C507.652 278.814 503.939 278.998 500.218 279.052Z" fill="#FAF9F9"/>
<path d="M616.152 376.506C618.079 380.805 619.485 385.41 620.963 389.893C618.389 386.37 615.095 381.583 610.959 379.771C613.583 378.654 613.954 378.352 616.152 376.506Z" fill="#C28F5B"/>
<path d="M230.874 231.533C231.579 234.025 231.875 235.602 232.297 238.104L231.22 239.905C230.832 237.254 230.905 234.242 230.874 231.533Z" fill="#3B3837"/>
<path d="M592.479 250.15L593.641 250.284C593.569 251.247 593.403 252.178 593.265 253.133C592.512 252.263 592.672 251.534 592.479 250.15Z" fill="#3B3837"/>
</g>
<defs>
<clipPath id="clip0_3542_77">
<rect width="970" height="1562" fill="white"/>
</clipPath>
</defs>
</svg>
