<svg width="152" height="147" viewBox="0 0 152 147" fill="none" xmlns="http://www.w3.org/2000/svg">
<rect width="152" height="147" fill="#FFFEF6"/>
<path d="M116.06 45.5615L110.568 45.1167L111.846 50.4763C112.652 53.8532 112.613 60.2158 110.624 66.8206C109.837 69.4335 108.774 71.9905 107.402 74.3548C105.519 70.8908 103.251 68.2107 100.783 66.1516C97.2882 63.2354 93.6086 61.764 90.597 60.998C90.6107 60.9786 90.6244 60.9592 90.638 60.9398C92.7903 57.8828 95.1923 53.6016 95.1923 49.1383C95.1923 44.7203 93.1746 40.9079 90.4092 38.2551C87.6767 35.6338 83.9471 33.8869 80.1013 33.8869C78.8736 33.8869 77.707 34.0708 76.6636 34.3126C76.6671 34.1744 76.6688 34.0363 76.6688 33.8985C76.6688 31.174 76.0075 28.6189 74.2454 26.7356C72.4458 24.8123 70.1069 24.2346 68.1289 24.2346C64.9403 24.2346 62.9245 26.3773 61.9206 28.3543C60.9318 30.3014 60.5514 32.6565 60.5514 34.9264C60.5514 37.4968 61.2348 40.1759 62.5635 42.3521C61.0576 44.842 59.0523 47.62 56.6583 50.6123C53.3372 54.7634 49.3818 59.1878 45.1987 63.6551C42.9343 54.9998 40.9193 46.6766 40.0907 39.0762C39.8769 37.1148 39.2706 34.3716 36.7686 32.9125C35.5713 32.2143 34.348 32.0714 33.4077 32.0853C32.4949 32.0989 31.6073 32.2659 30.8943 32.4231C29.2767 32.7796 27.2603 33.4764 25.8589 35.2451C24.3835 37.107 24.2529 39.292 24.4487 41.0678C25.7123 52.5274 29.5661 62.894 33.1852 72.6293C33.5004 73.4772 33.8138 74.3204 34.1236 75.159C33.6442 75.646 33.1627 76.1342 32.68 76.6236C27.0723 82.3092 21.2999 88.1616 16.7364 94.2884C11.1519 101.786 7 110.162 7 119.925C7 125.196 8.64202 130.497 12.448 134.511C16.2999 138.574 21.9658 140.893 29.1589 140.893C36.6782 140.893 43.0476 137.81 47.3842 131.689C51.5868 125.756 53.6239 117.345 53.6239 106.996C53.6239 97.7476 51.3387 87.298 48.6989 76.9721C54.8991 70.4745 61.0102 63.7101 65.8953 57.2498C68.5797 53.6998 70.9504 50.1687 72.7746 46.7607C74.191 46.5227 75.3492 46.1185 76.2693 45.7974L76.3605 45.7656C77.7645 45.276 78.5783 45.015 79.6797 45.015C79.6533 45.015 79.6557 45.0157 79.6822 45.0245C79.782 45.0572 80.2233 45.2022 80.7665 45.8397C81.3719 46.5503 81.8895 47.6656 81.8895 49.1383C81.8895 51.4828 80.868 54.2988 79.2756 56.9824C77.6816 59.6686 75.8649 61.6408 74.9385 62.3482C73.6803 63.3091 72.7276 64.6494 72.4209 66.2808C72.1197 67.8826 72.5134 69.4044 73.2794 70.5792C74.7164 72.7833 78.198 74.4323 81.3638 72.1869C82.7395 71.2112 83.5327 71.0029 84.2223 71.0029C84.9253 71.0029 88.2143 71.6125 91.3515 74.9297C93.2411 76.9277 95.1907 80.0398 96.3876 84.8488C93.8262 86.3992 91.3745 87.834 89.0179 89.2132C87.6693 90.0024 86.3518 90.7735 85.0626 91.5376C80.8346 94.0435 76.922 96.469 73.6169 99.0441C66.856 104.312 62.2565 110.534 62.2565 119.925C62.2565 131.806 72.7382 139.666 82.28 139.666C96.7858 139.666 112.746 124.926 112.746 100.089C112.746 95.7048 112.439 91.7833 111.878 88.2777C114.486 85.8978 116.976 83.2059 119.156 80.3598C123.65 74.4918 127.295 67.3536 127.307 60.451C127.314 56.6935 126.506 53.1814 124.599 50.437C122.612 47.5759 119.625 45.8502 116.06 45.5615ZM96.8971 98.1174C97.1065 98.0081 97.3154 97.899 97.5236 97.7903C97.2232 109.315 94.6904 116.972 91.6418 121.685C88.386 126.718 84.6999 128.244 82.28 128.244C80.7938 128.244 78.422 127.643 76.5037 126.215C74.7342 124.899 73.4057 122.948 73.4057 119.925C73.4057 114.871 77.1014 110.312 83.5022 105.848C86.5941 103.691 90.0567 101.737 93.5049 99.9002C94.627 99.3024 95.7693 98.7061 96.8971 98.1174ZM27.0051 100.397C30.4461 95.8901 34.4581 91.5981 38.3611 87.5863C40.2651 94.0303 41.5431 100.474 41.5431 107.296C41.5431 118.214 38.9271 123.645 36.4316 126.335C33.9672 128.992 31.0698 129.564 29.1589 129.564C23.1378 129.564 18.4645 125.762 18.4645 119.925C18.4645 113.83 21.7987 107.216 27.0051 100.397Z" fill="#FED874" stroke="#FED874" stroke-width="8"/>
<path d="M38.7086 24.0845C38.7086 21.5012 37.3691 19.4518 35.8782 18.163C34.4055 16.8899 32.392 16 30.2672 16C28.4436 16 26.4093 16.5615 24.8159 18.1201C23.1949 19.7057 22.5076 21.8549 22.5076 24.0845C22.5076 26.1217 23.0175 28.3209 24.5197 30.07C26.0986 31.9085 28.3163 32.7179 30.6081 32.7179C33.2589 32.7179 35.4082 31.4963 36.8005 29.7344C38.1203 28.0641 38.7086 26.0001 38.7086 24.0845Z" fill="#FED874" stroke="#FED874" stroke-width="8"/>
<path d="M122.06 42.5615L116.568 42.1167L117.846 47.4763C118.652 50.8532 118.613 57.2158 116.624 63.8206C115.837 66.4335 114.774 68.9905 113.402 71.3548C111.519 67.8908 109.251 65.2107 106.783 63.1516C103.288 60.2354 99.6086 58.764 96.597 57.9979C96.6107 57.9786 96.6244 57.9592 96.638 57.9397C98.7903 54.8828 101.192 50.6016 101.192 46.1383C101.192 41.7203 99.1746 37.9079 96.4092 35.2551C93.6767 32.6338 89.9471 30.8869 86.1013 30.8869C84.8736 30.8869 83.707 31.0708 82.6636 31.3126C82.6671 31.1744 82.6688 31.0363 82.6688 30.8985C82.6688 28.174 82.0075 25.6189 80.2454 23.7356C78.4458 21.8123 76.1069 21.2346 74.1289 21.2346C70.9403 21.2346 68.9245 23.3773 67.9206 25.3543C66.9318 27.3014 66.5514 29.6565 66.5514 31.9264C66.5514 34.4968 67.2348 37.1759 68.5635 39.3521C67.0576 41.842 65.0523 44.62 62.6583 47.6123C59.3372 51.7634 55.3818 56.1878 51.1987 60.6551C48.9343 51.9998 46.9193 43.6766 46.0907 36.0762C45.8769 34.1148 45.2706 31.3716 42.7686 29.9125C41.5713 29.2142 40.348 29.0714 39.4077 29.0853C38.4949 29.0989 37.6073 29.2659 36.8943 29.4231C35.2767 29.7796 33.2603 30.4764 31.8589 32.2451C30.3835 34.107 30.2529 36.292 30.4487 38.0678C31.7123 49.5274 35.5661 59.894 39.1852 69.6293C39.5004 70.4772 39.8138 71.3204 40.1236 72.159C39.6442 72.646 39.1627 73.1342 38.68 73.6236C33.0723 79.3092 27.2999 85.1616 22.7364 91.2884C17.1519 98.7861 13 107.162 13 116.925C13 122.196 14.642 127.497 18.448 131.511C22.2999 135.574 27.9658 137.893 35.1589 137.893C42.6782 137.893 49.0476 134.81 53.3842 128.688C57.5868 122.756 59.6239 114.345 59.6239 103.996C59.6239 94.7476 57.3387 84.298 54.6989 73.9721C60.8991 67.4745 67.0102 60.7101 71.8953 54.2498C74.5797 50.6998 76.9504 47.1687 78.7746 43.7607C80.191 43.5227 81.3492 43.1185 82.2693 42.7974L82.3605 42.7656C83.7645 42.276 84.5783 42.015 85.6797 42.015C85.6533 42.015 85.6557 42.0157 85.6822 42.0245C85.782 42.0572 86.2233 42.2022 86.7665 42.8397C87.3719 43.5502 87.8895 44.6656 87.8895 46.1383C87.8895 48.4827 86.868 51.2988 85.2756 53.9824C83.6816 56.6686 81.8649 58.6408 80.9385 59.3482C79.6803 60.3091 78.7276 61.6494 78.4209 63.2808C78.1197 64.8826 78.5134 66.4043 79.2794 67.5792C80.7164 69.7833 84.198 71.4323 87.3638 69.1869C88.7395 68.2112 89.5327 68.0029 90.2223 68.0029C90.9253 68.0029 94.2143 68.6125 97.3515 71.9297C99.2411 73.9277 101.191 77.0398 102.388 81.8488C99.8262 83.3992 97.3746 84.834 95.0179 86.2131C93.6693 87.0024 92.3518 87.7735 91.0626 88.5376C86.8346 91.0435 82.922 93.469 79.6169 96.0441C72.856 101.312 68.2565 107.534 68.2565 116.925C68.2565 128.805 78.7382 136.666 88.28 136.666C102.786 136.666 118.746 121.926 118.746 97.0889C118.746 92.7048 118.439 88.7832 117.878 85.2777C120.486 82.8978 122.976 80.2059 125.156 77.3598C129.65 71.4918 133.295 64.3536 133.307 57.451C133.314 53.6935 132.506 50.1814 130.599 47.437C128.612 44.5759 125.625 42.8502 122.06 42.5615ZM102.897 95.1174C103.106 95.008 103.315 94.899 103.524 94.7902C103.223 106.315 100.69 113.972 97.6418 118.685C94.386 123.718 90.6999 125.244 88.28 125.244C86.7938 125.244 84.422 124.643 82.5037 123.215C80.7342 121.899 79.4057 119.948 79.4057 116.925C79.4057 111.871 83.1014 107.312 89.5022 102.848C92.5941 100.691 96.0567 98.7372 99.5049 96.9002C100.627 96.3024 101.769 95.7061 102.897 95.1174ZM33.0051 97.3971C36.4461 92.8901 40.4581 88.5981 44.3611 84.5863C46.2651 91.0303 47.5431 97.4737 47.5431 104.295C47.5431 115.214 44.9271 120.645 42.4316 123.335C39.9672 125.992 37.0698 126.564 35.1589 126.564C29.1378 126.564 24.4645 122.762 24.4645 116.925C24.4645 110.83 27.7987 104.216 33.0051 97.3971Z" fill="#FCF398" stroke="#FCF398" stroke-width="8"/>
<path d="M44.7087 21.0845C44.7087 18.5012 43.3691 16.4518 41.8782 15.163C40.4055 13.8899 38.392 13 36.2672 13C34.4437 13 32.4093 13.5615 30.8159 15.1201C29.1949 16.7057 28.5076 18.8549 28.5076 21.0845C28.5076 23.1217 29.0175 25.3209 30.5197 27.07C32.0986 28.9085 34.3163 29.7179 36.6081 29.7179C39.2589 29.7179 41.4082 28.4963 42.8005 26.7344C44.1203 25.0641 44.7087 23.0001 44.7087 21.0845Z" fill="#FCF398" stroke="#FCF398" stroke-width="8"/>
<path d="M128.06 39.5615L122.568 39.1167L123.846 44.4763C124.652 47.8532 124.613 54.2158 122.624 60.8206C121.837 63.4335 120.774 65.9905 119.402 68.3548C117.519 64.8908 115.251 62.2107 112.783 60.1516C109.288 57.2354 105.609 55.764 102.597 54.9979C102.611 54.9786 102.624 54.9592 102.638 54.9397C104.79 51.8828 107.192 47.6016 107.192 43.1383C107.192 38.7203 105.175 34.9079 102.409 32.2551C99.6767 29.6338 95.9471 27.8869 92.1013 27.8869C90.8737 27.8869 89.707 28.0708 88.6636 28.3126C88.6671 28.1744 88.6688 28.0363 88.6688 27.8985C88.6688 25.174 88.0075 22.6189 86.2454 20.7356C84.4459 18.8123 82.1069 18.2346 80.1289 18.2346C76.9403 18.2346 74.9245 20.3773 73.9206 22.3543C72.9318 24.3014 72.5514 26.6565 72.5514 28.9264C72.5514 31.4968 73.2348 34.1759 74.5635 36.3521C73.0576 38.842 71.0524 41.62 68.6583 44.6123C65.3372 48.7634 61.3818 53.1878 57.1987 57.6551C54.9343 48.9998 52.9193 40.6766 52.0907 33.0762C51.8769 31.1148 51.2706 28.3716 48.7686 26.9125C47.5713 26.2142 46.348 26.0714 45.4077 26.0853C44.4949 26.0989 43.6073 26.2659 42.8943 26.4231C41.2767 26.7796 39.2603 27.4764 37.8589 29.2451C36.3835 31.107 36.2529 33.292 36.4487 35.0678C37.7123 46.5274 41.5661 56.894 45.1852 66.6293C45.5004 67.4772 45.8138 68.3204 46.1236 69.159C45.6442 69.646 45.1628 70.1341 44.6801 70.6235C39.0723 76.3091 33.2999 82.1616 28.7364 88.2884C23.1519 95.7861 19 104.162 19 113.925C19 119.196 20.642 124.497 24.448 128.511C28.2999 132.574 33.9658 134.893 41.1589 134.893C48.6782 134.893 55.0476 131.81 59.3842 125.688C63.5868 119.756 65.6239 111.345 65.6239 100.996C65.6239 91.7476 63.3387 81.298 60.6989 70.9721C66.8991 64.4745 73.0103 57.7101 77.8954 51.2498C80.5797 47.6998 82.9504 44.1687 84.7746 40.7607C86.1911 40.5227 87.3492 40.1185 88.2694 39.7974L88.3605 39.7656C89.7645 39.276 90.5783 39.015 91.6797 39.015C91.6533 39.015 91.6557 39.0157 91.6822 39.0245C91.782 39.0572 92.2233 39.2022 92.7665 39.8397C93.3719 40.5502 93.8895 41.6656 93.8895 43.1383C93.8895 45.4827 92.868 48.2988 91.2756 50.9824C89.6816 53.6686 87.8649 55.6408 86.9385 56.3482C85.6803 57.3091 84.7276 58.6494 84.4209 60.2808C84.1198 61.8826 84.5134 63.4043 85.2794 64.5792C86.7164 66.7833 90.198 68.4323 93.3639 66.1869C94.7395 65.2112 95.5327 65.0029 96.2223 65.0029C96.9253 65.0029 100.214 65.6125 103.352 68.9297C105.241 70.9277 107.191 74.0398 108.388 78.8488C105.826 80.3992 103.375 81.8339 101.018 83.2131C99.6693 84.0024 98.3518 84.7735 97.0626 85.5376C92.8346 88.0435 88.922 90.469 85.6169 93.0441C78.856 98.3119 74.2565 104.534 74.2565 113.925C74.2565 125.805 84.7382 133.666 94.28 133.666C108.786 133.666 124.746 118.926 124.746 94.0889C124.746 89.7048 124.439 85.7832 123.878 82.2777C126.486 79.8978 128.976 77.2059 131.156 74.3598C135.65 68.4918 139.295 61.3536 139.307 54.451C139.314 50.6935 138.506 47.1814 136.599 44.437C134.612 41.5759 131.625 39.8502 128.06 39.5615ZM108.897 92.1174C109.106 92.008 109.315 91.899 109.524 91.7902C109.223 103.315 106.69 110.972 103.642 115.685C100.386 120.718 96.6999 122.244 94.28 122.244C92.7938 122.244 90.422 121.643 88.5037 120.215C86.7343 118.899 85.4057 116.948 85.4057 113.925C85.4057 108.871 89.1014 104.312 95.5022 99.8476C98.5941 97.6908 102.057 95.7372 105.505 93.9002C106.627 93.3024 107.769 92.7061 108.897 92.1174ZM39.0051 94.3971C42.4461 89.8901 46.4581 85.5981 50.3611 81.5863C52.2652 88.0303 53.5431 94.4737 53.5431 101.295C53.5431 112.214 50.9271 117.645 48.4316 120.335C45.9672 122.992 43.0698 123.564 41.1589 123.564C35.1378 123.564 30.4645 119.762 30.4645 113.925C30.4645 107.83 33.7987 101.216 39.0051 94.3971Z" fill="#CCF7AA" stroke="#CCF7AA" stroke-width="8"/>
<path d="M50.7087 18.0845C50.7087 15.5012 49.3691 13.4518 47.8782 12.163C46.4055 10.8899 44.392 10 42.2672 10C40.4437 10 38.4093 10.5615 36.8159 12.1201C35.1949 13.7057 34.5076 15.8549 34.5076 18.0845C34.5076 20.1217 35.0175 22.3209 36.5197 24.07C38.0986 25.9085 40.3163 26.7179 42.6081 26.7179C45.2589 26.7179 47.4082 25.4963 48.8005 23.7344C50.1203 22.0641 50.7087 20.0001 50.7087 18.0845Z" fill="#CCF7AA" stroke="#CCF7AA" stroke-width="8"/>
<path d="M134.06 36.5615L128.568 36.1167L129.846 41.4763C130.652 44.8532 130.613 51.2158 128.624 57.8206C127.837 60.4335 126.774 62.9905 125.402 65.3548C123.519 61.8908 121.251 59.2107 118.783 57.1516C115.288 54.2354 111.609 52.764 108.597 51.9979C108.611 51.9786 108.624 51.9592 108.638 51.9397C110.79 48.8828 113.192 44.6016 113.192 40.1383C113.192 35.7203 111.175 31.9079 108.409 29.2551C105.677 26.6338 101.947 24.8869 98.1013 24.8869C96.8737 24.8869 95.707 25.0708 94.6636 25.3126C94.6671 25.1744 94.6688 25.0363 94.6688 24.8985C94.6688 22.174 94.0075 19.6189 92.2454 17.7356C90.4459 15.8123 88.1069 15.2346 86.1289 15.2346C82.9403 15.2346 80.9245 17.3773 79.9206 19.3543C78.9318 21.3014 78.5514 23.6565 78.5514 25.9264C78.5514 28.4968 79.2348 31.1759 80.5635 33.3521C79.0576 35.842 77.0524 38.62 74.6583 41.6123C71.3372 45.7634 67.3818 50.1878 63.1987 54.6551C60.9343 45.9998 58.9193 37.6766 58.0907 30.0762C57.8769 28.1148 57.2706 25.3716 54.7686 23.9125C53.5713 23.2142 52.348 23.0714 51.4077 23.0853C50.4949 23.0989 49.6073 23.2659 48.8943 23.4231C47.2767 23.7796 45.2603 24.4764 43.8589 26.2451C42.3835 28.107 42.2529 30.292 42.4487 32.0678C43.7123 43.5274 47.5661 53.894 51.1852 63.6293C51.5004 64.4772 51.8138 65.3204 52.1236 66.159C51.6442 66.646 51.1628 67.1341 50.6801 67.6235C45.0723 73.3091 39.2999 79.1616 34.7364 85.2884C29.1519 92.7861 25 101.162 25 110.925C25 116.196 26.642 121.497 30.448 125.511C34.2999 129.574 39.9658 131.893 47.1589 131.893C54.6782 131.893 61.0476 128.81 65.3842 122.688C69.5868 116.756 71.6239 108.345 71.6239 97.9959C71.6239 88.7476 69.3387 78.298 66.6989 67.9721C72.8991 61.4745 79.0103 54.7101 83.8954 48.2498C86.5797 44.6998 88.9504 41.1687 90.7746 37.7607C92.1911 37.5227 93.3492 37.1185 94.2694 36.7974L94.3605 36.7656C95.7645 36.276 96.5783 36.015 97.6797 36.015C97.6533 36.015 97.6557 36.0157 97.6822 36.0245C97.782 36.0572 98.2233 36.2022 98.7665 36.8397C99.3719 37.5502 99.8895 38.6656 99.8895 40.1383C99.8895 42.4827 98.868 45.2988 97.2756 47.9824C95.6816 50.6686 93.8649 52.6408 92.9385 53.3482C91.6803 54.3091 90.7276 55.6494 90.4209 57.2808C90.1198 58.8826 90.5134 60.4043 91.2794 61.5792C92.7164 63.7833 96.198 65.4323 99.3639 63.1869C100.74 62.2112 101.533 62.0029 102.222 62.0029C102.925 62.0029 106.214 62.6125 109.352 65.9297C111.241 67.9277 113.191 71.0398 114.388 75.8488C111.826 77.3992 109.375 78.8339 107.018 80.2131C105.669 81.0024 104.352 81.7735 103.063 82.5376C98.8346 85.0435 94.922 87.469 91.6169 90.0441C84.856 95.3119 80.2565 101.534 80.2565 110.925C80.2565 122.805 90.7382 130.666 100.28 130.666C114.786 130.666 130.746 115.926 130.746 91.0889C130.746 86.7048 130.439 82.7832 129.878 79.2777C132.486 76.8978 134.976 74.2059 137.156 71.3598C141.65 65.4918 145.295 58.3536 145.307 51.451C145.314 47.6935 144.506 44.1814 142.599 41.437C140.612 38.5759 137.625 36.8502 134.06 36.5615ZM114.897 89.1174C115.106 89.008 115.315 88.899 115.524 88.7902C115.223 100.315 112.69 107.972 109.642 112.685C106.386 117.718 102.7 119.244 100.28 119.244C98.7938 119.244 96.422 118.643 94.5037 117.215C92.7343 115.899 91.4057 113.948 91.4057 110.925C91.4057 105.871 95.1014 101.312 101.502 96.8476C104.594 94.6908 108.057 92.7372 111.505 90.9002C112.627 90.3024 113.769 89.7061 114.897 89.1174ZM45.0051 91.3971C48.4461 86.8901 52.4581 82.5981 56.3611 78.5863C58.2652 85.0303 59.5431 91.4737 59.5431 98.2955C59.5431 109.214 56.9271 114.645 54.4316 117.335C51.9672 119.992 49.0698 120.564 47.1589 120.564C41.1378 120.564 36.4645 116.762 36.4645 110.925C36.4645 104.83 39.7987 98.2163 45.0051 91.3971Z" fill="#ADEBEF" stroke="#ADEBEF" stroke-width="8"/>
<path d="M56.7087 15.0845C56.7087 12.5012 55.3691 10.4518 53.8782 9.16297C52.4055 7.88987 50.392 7 48.2672 7C46.4437 7 44.4093 7.56147 42.8159 9.12005C41.1949 10.7057 40.5076 12.8549 40.5076 15.0845C40.5076 17.1217 41.0175 19.3209 42.5197 21.07C44.0986 22.9085 46.3163 23.7179 48.6081 23.7179C51.2589 23.7179 53.4082 22.4963 54.8005 20.7344C56.1203 19.0641 56.7087 17.0001 56.7087 15.0845Z" fill="#ADEBEF" stroke="#ADEBEF" stroke-width="8"/>
<g filter="url(#filter0_d)">
<path d="M134.818 38.5517L133.445 38.4405L133.765 39.7804C134.717 43.7736 134.605 50.6833 132.497 57.6855C131.143 62.1804 128.986 66.6521 125.816 70.3883C123.8 64.8083 120.939 61.0231 117.861 58.4551C112.493 53.9759 106.635 53.3549 104.066 53.143C105.057 52.0147 106.156 50.6748 107.185 49.2127C109.267 46.2559 111.192 42.6251 111.192 39.1383C111.192 35.6628 109.605 32.6001 107.332 30.42C105.068 28.2478 102.056 26.8869 99.1013 26.8869C97.2611 26.8869 95.5385 27.4181 94.0347 27.8948L93.9099 27.9344C93.2182 28.1538 92.5816 28.3556 91.9821 28.5101C92.4267 26.9091 92.6688 25.366 92.6688 23.8985C92.6688 21.6193 92.1151 19.9186 91.0548 18.7853C89.9851 17.642 88.5491 17.2346 87.1289 17.2346C85.4786 17.2346 84.3039 18.3175 83.5954 19.7126C82.8907 21.1004 82.5514 22.9438 82.5514 24.9264C82.5514 27.852 83.5333 30.4648 85.1546 32.119C85.0892 32.2402 85.0224 32.3622 84.9543 32.485C83.2786 35.5068 80.8789 38.8892 78.0009 42.4865C73.6384 47.9392 68.2242 53.8279 62.6729 59.6281C62.6599 59.579 62.6469 59.53 62.6338 59.481C59.8671 49.0541 57.1237 38.715 56.1084 29.4013C55.909 27.5719 55.4224 26.1835 54.2573 25.504C53.6881 25.1721 53.0613 25.076 52.4521 25.085C51.8498 25.0939 51.2007 25.2072 50.5401 25.3528C49.1464 25.66 47.9644 26.1563 47.2102 27.1082C46.4375 28.0834 46.2749 29.3269 46.4306 30.739C47.6514 41.8101 51.3753 51.8339 55.0104 61.6183C55.3536 62.5421 55.696 63.4638 56.0354 64.3841C56.2227 64.8919 56.4092 65.3993 56.5944 65.9064C55.6546 66.8665 54.7096 67.8248 53.765 68.7828C48.1608 74.4664 42.5693 80.137 38.1424 86.0805C32.7566 93.3113 29 101.063 29 109.925C29 114.593 30.4509 119.1 33.6249 122.447C36.8105 125.807 41.6318 127.893 48.1589 127.893C54.7676 127.893 60.1971 125.233 63.9362 119.954C67.6419 114.723 69.6239 107.015 69.6239 96.9959C69.6239 87.675 67.1879 76.9538 64.3772 66.1034C70.9405 59.2701 77.4163 52.1666 82.5025 45.4403C85.4964 41.481 88.0272 37.6287 89.8129 34.0191C89.8239 33.9969 89.8348 33.9747 89.8457 33.9525C91.6621 33.878 93.0696 33.3872 94.3521 32.94L94.3728 32.9328C95.7709 32.4453 97.0169 32.015 98.6797 32.015C99.675 32.015 100.97 32.6269 102.05 33.8941C103.109 35.1371 103.889 36.9391 103.889 39.1383C103.889 42.2459 102.58 45.6075 100.856 48.5133C99.1308 51.4198 97.0786 53.725 95.7593 54.7325C94.9877 55.3217 94.517 56.0494 94.3692 56.8351C94.2229 57.6134 94.4118 58.357 94.7924 58.9407C95.5299 60.0719 97.173 60.772 98.6283 59.7399C100.3 58.5543 101.694 58.0029 103.222 58.0029C104.768 58.0029 108.84 58.9652 112.531 62.8683C115.124 65.6104 117.565 69.8448 118.77 76.2994C115.514 78.3025 112.415 80.1157 109.497 81.8238C108.157 82.6081 106.854 83.3702 105.592 84.1183C101.373 86.6193 97.6032 88.9622 94.4608 91.4106C88.1382 96.3369 84.2565 101.774 84.2565 109.925C84.2565 119.888 93.1223 126.666 101.28 126.666C113.718 126.666 128.746 113.713 128.746 90.0889C128.746 85.1428 128.344 80.8572 127.636 77.1437C130.539 74.644 133.354 71.6957 135.774 68.5356C140.109 62.8756 143.296 56.3819 143.307 50.4457C143.313 47.0844 142.586 44.2359 141.136 42.1485C139.665 40.0321 137.497 38.7687 134.818 38.5517ZM114.585 85.418C116.321 84.5118 117.985 83.6431 119.495 82.8104C119.533 83.6682 119.553 84.5549 119.553 85.4717C119.553 98.678 116.816 107.664 113.161 113.315C109.504 118.968 104.969 121.244 101.28 121.244C99.1816 121.244 96.1748 120.454 93.713 118.622C91.2884 116.818 89.4057 114.021 89.4057 109.925C89.4057 103.29 94.2482 97.9473 100.786 93.387C104.028 91.1258 107.617 89.1052 111.094 87.2525C112.273 86.6246 113.444 86.0132 114.585 85.418ZM58.3889 72.2521C58.4977 72.1416 58.6061 72.0315 58.7142 71.9217C61.461 80.1056 63.5431 88.3676 63.5431 97.2955C63.5431 108.651 60.8236 114.934 57.6309 118.376C54.4461 121.809 50.6497 122.564 48.1589 122.564C40.9249 122.564 34.4645 117.831 34.4645 109.925C34.4645 102.812 38.3094 95.5331 43.6206 88.5766C48.12 82.6834 53.5703 77.1469 58.3889 72.2521Z" fill="#FFFDEE" stroke="#FFFDEE" stroke-width="2"/>
<path d="M54.7086 14.0845C54.7086 12.5855 53.9282 11.3073 52.9163 10.4325C51.9089 9.56171 50.5728 9 49.2672 9C48.0369 9 46.8234 9.37485 45.9137 10.2647C44.9971 11.1612 44.5076 12.4644 44.5076 14.0845C44.5076 15.6565 44.9021 17.0751 45.7956 18.1154C46.7082 19.1781 48.0315 19.7179 49.6081 19.7179C51.2745 19.7179 52.5806 18.9703 53.4466 17.8744C54.2945 16.8014 54.7086 15.4166 54.7086 14.0845Z" fill="#FFFDEE" stroke="#FFFDEE" stroke-width="2"/>
</g>
<defs>
<filter id="filter0_d" x="28" y="8" width="117.307" height="121.893" filterUnits="userSpaceOnUse" color-interpolation-filters="sRGB">
<feFlood flood-opacity="0" result="BackgroundImageFix"/>
<feColorMatrix in="SourceAlpha" type="matrix" values="0 0 0 0 0 0 0 0 0 0 0 0 0 0 0 0 0 0 127 0"/>
<feOffset dx="1" dy="1"/>
<feColorMatrix type="matrix" values="0 0 0 0 0.239216 0 0 0 0 0.733333 0 0 0 0 0.827451 0 0 0 1 0"/>
<feBlend mode="normal" in2="BackgroundImageFix" result="effect1_dropShadow"/>
<feBlend mode="normal" in="SourceGraphic" in2="effect1_dropShadow" result="shape"/>
</filter>
</defs>
</svg>
