<?xml version="1.0" encoding="UTF-8"?>
<svg width="512px" height="512px" viewBox="0 0 512 512" version="1.1" xmlns="http://www.w3.org/2000/svg" xmlns:xlink="http://www.w3.org/1999/xlink">
    <title>JZ Monogram</title>
    <defs></defs>
    <g id="monogram-v2-512" stroke="none" stroke-width="1" fill="none" fill-rule="evenodd">
        <path d="M132.267946,102.882248 C141.40625,185.636719 185.632801,288.765732 185.632801,366.045699 C185.632801,443.325665 154.605469,482.630284 104.793109,482.630284 C54.9807492,482.630284 33.0630266,451.298828 33.0630266,416.462242 C33.0630266,349.688692 90.3364765,298.800432 143.894717,244.550803 C201.684728,186.014776 264.277825,119.993669 264.277825,84.7976317 C264.277825,75.6469573 264.697266,71.5130699 260.537086,71.5130699 C257.679688,71.5130699 257.394073,78.6583984 257.394073,85.0098014 C257.394073,98.2601423 261.216797,104.050322 269.982061,104.050322 C281.001198,104.050322 292.870545,96.5544422 306.022786,96.5544422 C327.019531,96.5544422 349.833874,115.774342 349.833874,140.429375 C349.833874,165.084409 321.918013,193.681658 312.708022,203.028532 C301.459352,214.444386 301.155005,199.752449 310.022786,199.59047 C318.890568,199.428491 316.010835,198.16618 323.127152,198.752449 C340.317069,200.168621 419.173872,203.875032 419.173872,339.111552 C419.173872,429.655548 361.037089,477.843168 314.628957,477.843168 C284.22709,477.843168 251.33394,452.823112 251.33394,416.462242 C251.33394,356.11935 308.885937,335.729776 388.965175,286.723135 C444.638418,252.652398 454.699752,174.77356 446.790156,142.028701 C465.62307,143.534422 476.735993,159.330823 476.690865,184.515865 C476.61241,228.299891 428.734375,282.453125 389.257159,304.772747 C346.328118,329.043961 263.773602,360.609375 263.773602,416.462242 C263.773602,451.196477 296.439396,464.500074 314.628957,464.500074 C347.111455,464.500074 390.761382,425.092758 390.761382,321.106784 C390.761382,226.935371 336.731075,210.09248 322.301253,210.09248 C315.160487,210.09248 308.861591,212.688707 301.869116,217.58458 C294.876641,222.480453 285.590317,211.596839 295.21885,204.338053 C306.676014,195.700692 328.886891,166.649445 328.886891,140.429375 C328.886891,121.388854 315.171875,108.752277 304.357368,108.752277 C289.742753,108.752277 282.392848,116.345508 267.586596,116.345508 C255.020674,116.345508 244.598513,103.376953 244.598513,85.0098014 C244.598513,70.2948051 249.743808,58.9152079 258.730222,58.9152079 C268.480903,58.9152079 276.663483,64.3837112 276.663483,81.0013908 C276.663483,125.851562 213.175781,195.253906 152.252965,256.899959 C110.188924,299.463356 46.7483307,358.34371 46.7483307,416.462242 C46.7483307,449.980494 74.6210938,469.649931 104.793109,469.649931 C125.998047,469.649931 169.513248,456.90909 169.513248,367.213773 C169.513248,274.662149 112.318359,200.585937 101.892707,107.248838 C100.768156,97.1811395 104.628974,92.7480215 115.049511,90.4805861 C125.210938,88.2695312 130.730346,88.9580754 132.267946,102.882248 Z" id="Path-5" fill="#2F8C68" fill-rule="nonzero"></path>
        <path d="M126.716803,42.7319058 C126.716803,33.8596509 117.329659,26.8043997 109.172291,26.8043997 C101.014923,26.8043997 94.3213703,31.6809485 94.3213703,42.7319058 C94.3213703,53.7828631 99.946848,60.7998167 110.519087,60.7998167 C121.091325,60.7998167 126.716803,51.6041607 126.716803,42.7319058 Z" id="Path-6" fill="#2F8C68"></path>
    </g>
</svg>
