<?xml version="1.0" encoding="utf-8"?>
<!-- Generator: Adobe Illustrator 15.1.0, SVG Export Plug-In . SVG Version: 6.00 Build 0)  -->
<!DOCTYPE svg PUBLIC "-//W3C//DTD SVG 1.1//EN" "http://www.w3.org/Graphics/SVG/1.1/DTD/svg11.dtd">
<svg version="1.1" id="Layer_1" xmlns="http://www.w3.org/2000/svg" xmlns:xlink="http://www.w3.org/1999/xlink" x="0px" y="0px"
	 width="100px" height="100px" viewBox="0 0 100 100" enable-background="new 0 0 100 100" xml:space="preserve">
<g>
	<path fill="#185D72" d="M77.1,83.5c9.8,0,15.2-0.6,17.7-3.3c2-2,3.5-4.6,5.2-9.5V32.5L64.2,83C66.9,83.3,70.9,83.5,77.1,83.5z"/>
	<path fill="#185D72" d="M49.7,85.5L87.3,33H73.5c-9.3,0-11.4,1.2-12.9,3.6c-1.4,2.1-2.3,5.4-3.5,9.4h-3.4c0.5-7,1.1-14,1.3-19h2.8
		c1.1,2,2.3,2,5,2H100V0H0v100h17.8l-0.1-0.3c5.3-2.5,7.9-6.3,9-11.6c1.1-5.5,1.3-12.3,1.3-20.7V43.1c0-9.1-1-9.8-9-10.4V29h28v3.7
		c-8,0.6-9,1.3-9,10.4v27.9c0,11.8-1.3,20.7-9.7,27.3c-0.8,0.6-1.5,1.1-2.2,1.6H100V87H50.5L49.7,85.5z"/>
</g>
</svg>
