<svg version="1" xmlns="http://www.w3.org/2000/svg" width="1365.333" height="1365.333" viewBox="0 0 1024.000000 1024.000000"><path d="M341.5 103.6c-1.1.2-4.5.9-7.5 1.5-6.9 1.3-22.2 8.6-27.5 13.1-2.5 2.1-6.4 4.1-10.3 5.1-8 2.2-16 6.2-23.7 11.9-3.4 2.5-8.2 4.9-11 5.6-7.2 1.8-16.1 6.2-23 11.4-4 3-7.8 4.8-11.5 5.7-16.3 3.6-34 18-41.9 34.1-6.2 12.8-7.6 19.3-7.5 34.5.2 19.9 4.9 34.3 15.7 47.7l5 6.2-2.6 4.5c-5.3 9.6-7.2 18.4-7.1 33.1.1 36.7 15.9 99.8 44.3 177l7.9 21.5-18.2 18.5c-33.4 34.2-55.8 59.6-73.9 83.8-33.5 45-52.5 87.1-59.4 131.4-2.4 15.7-2.4 45.7.1 59.3 9.1 51.4 42.4 91.2 90.3 107.8 20.5 7.2 42.6 10.3 65.7 9.4 28.7-1.2 51.7-7.7 74.1-21.1 5-3 12.4-6.8 16.5-8.5 4.2-1.7 11.1-5.2 15.5-7.7s12.6-6.5 18.2-9c5.6-2.4 14-6.6 18.7-9.4 4.8-2.8 10.5-5.8 12.8-6.6 4.1-1.4 19.2-8.8 23.6-11.5 2-1.2 2.4-1.2 3.3.4 6.2 10.8 25.1 30.5 37.9 39.6 35.9 25.2 77 32.8 119.5 22.1 17.9-4.5 29.8-9.6 53-22.7 1.1-.6 7.6-3.9 14.5-7.2 6.9-3.3 14.5-7.1 17-8.5 2.5-1.4 8.6-4.3 13.7-6.5 5-2.1 12.4-5.9 16.5-8.2 4-2.4 11.6-6.2 16.8-8.4 26.9-11.5 55.8-34 75.9-58.8 28.2-34.9 48.5-82.8 55.5-130.7 4-27.5 4.6-66.8 1.5-97.2l-1.2-11.7 10.5-11.3c26.4-28.5 44.4-54.1 57.9-82.3 23.5-49.2 25.8-97.6 6.3-136.6-14.3-28.6-40.1-46.5-72-49.8-18.8-2-64.5-5.4-65-4.9-.3.3.6 4.9 1.9 10.2l2.5 9.6h-3.2c-1.7 0-10.5-.7-19.6-1.4-9.1-.8-16.6-1.4-16.7-1.3-.2.2 3.4 16 4.3 18.9.4 1.4 0 1.8-1.9 1.8-3.3 0-4.2-1.4-5.6-9.3-1.5-8.9-7-24-11.6-32.2-18.3-32.8-53-55.8-88.8-59.1l-7.4-.6-1.8-5.7c-5.7-18.6-19-34.3-36-42.6-9.4-4.6-17-6.5-29-7.2-16-.8-28 2.8-40.7 12.5-4.9 3.6-8.5 5.5-13 6.6-8.4 2.2-17.4 6.8-23.6 12.2-2.7 2.4-5.9 4.4-7 4.4-5.6 0-20.5 6.9-27.1 12.7-3.4 2.8-6 4.1-10.5 5-8.6 1.8-19.1 7.3-26.1 13.6l-5.9 5.3-4-5-4.1-4.9 3.3-6.6c5.5-11.3 7.5-21.4 7-36-.4-11.1-.8-13.5-3.5-20.4-6.9-17.3-19.6-31.3-35.7-39.2-5-2.5-11.8-5.2-15.1-6-6.1-1.6-22.4-2.8-26-1.9zm29.7 32.6c11.3 5.3 20.1 16.8 21.4 28.3 1.8 14.8-7.3 31.8-20.5 38.2-4.8 2.4-6.7 2.8-14.1 2.7-15.2-.1-25.2-5.9-31.2-18.2-3.2-6.4-3.3-7.1-3.3-18.7 0-10.5.3-12.7 2.4-17.3 3-6.7 11.6-14.6 17.9-16.7 7.5-2.3 20.4-1.6 27.4 1.7zm213.2 45.3c12.7 2.7 21.4 10.8 26 24 2.1 6.1 3.2 23.8 1.8 31.7-1 6.5-.6 6.8 5.2 4.4 6.6-2.7 19.2-4.9 28.1-4.9 26.8 0 53.1 17 66.9 43.3 8.7 16.6 10.4 37 4.5 55.1-4.6 14.1-16.7 35.5-28.2 49.9-2 2.4-3.5 4.5-3.3 4.7.1.1 4.7 1.1 10.2 2.2 45.3 8.8 82.5 39.1 102.6 83.8 1.8 4 3.5 7.3 3.8 7.3.3 0 2.6-3.3 5.2-7.3 22.2-34.3 34.6-74.5 36.5-118.1.7-16.2-.6-29.6-4.1-44.1-1.3-5.5-2.3-10.2-2.1-10.4 1-.9 23.9 2.1 29 3.9 24.6 8.5 38.4 31.1 40.1 65.5 2.3 45.6-25.2 99.5-76.5 150.3L816.7 536l1.7 11.8c3 21.8 3.8 38 3.3 66.2-.3 18.4-1.1 31-2.2 38-11.8 74.9-49.4 132.3-104.7 160.1-29.6 14.8-62 18.1-88.8 8.9-28-9.7-52.7-31.4-64.1-56.5-12.3-27.2-11.2-64.4 2.9-93.9 16.6-34.8 44.4-59.4 112.7-99.9 82-48.5 75.6-44.5 74.9-47.5-9.5-42.1-30.9-74-58.9-87.8-20.2-9.9-29.4-9.7-46.7.7-9.4 5.7-15 6.2-22.8 2.2-7.7-3.9-11.3-9.3-11.8-17.7-.5-8.4 1.8-13.7 9.3-20.7 15.9-15 24.8-26.8 34-45.4 10.9-21.8 14-40 9.5-54.7-3.3-10.7-10.6-19.2-18.8-21.9-4.8-1.6-11.6-.5-25.7 4.1-6.6 2.1-15.1 4.4-18.9 5.1-6.7 1.3-6.8 1.3-9.5 6.2-22.8 42.3-64.5 95.1-129.9 164.5l-12.6 13.3 6.7 27.2c10.2 41.7 16.2 72.9 20.4 105.2 2.5 19.8 2.5 74.4 0 92.5-6.6 46.7-21.5 81.6-45 105.1-14.2 14.1-29.9 23.1-50.6 28.7-9.1 2.5-10.9 2.6-33.1 2.6-23.2 0-23.7-.1-35.5-3.2-22.3-5.9-42.5-18-55.1-33.1-16.6-19.8-24.4-43.5-24.4-74.1.1-54.1 24-106.8 76.2-167.7 14.8-17.3 28.2-31.6 57-61 25.2-25.6 25.8-26.3 24.7-29-16.1-42.2-32.7-90.1-39.9-115-8.9-30.9-15.8-66.2-16.7-85.5-.7-13.6.6-18.4 6.5-25 5-5.5 10.4-8.4 20.2-10.8 11.4-2.7 18.2-2.6 24.5.4 9.8 4.5 13.3 11.7 15.9 32.1 4.2 33.2 10.6 64.6 23.7 116.5 10.7 42.7 10.8 43 11.8 43 .9 0 36.5-38.5 53.6-58 25-28.5 50.4-61.6 61.9-80.6 2.6-4.1 4.6-7.7 4.6-8 0-.2-1.6-2.8-3.4-5.7-9.9-14.9-12.9-41-7-60.7 4.2-14.2 13-23.8 23.6-25.9 6.1-1.2 6.5-1.2 14.2.4zm-17.6 343.4c8.3 4.2 15.1 9.9 20.7 17.2 6 8.1 14.3 24.5 13 25.8-.6.5-14.9 9.1-32 19.1-17 10.1-37.6 22.5-45.7 27.6-8.2 5.1-14.8 9.2-14.8 9.1 0-3.2-4.6-38.4-6.4-49.3-2.4-13.9-7.5-40.4-9.1-46.7l-.8-2.9 6.4 3.2c11.7 5.9 22.1 7.8 33.4 6 7-1.1 19.4-6.2 24.2-10 3.4-2.6 4.3-2.5 11.1.9z"/><path d="M384.8 537.7c-25 26.4-35.4 38-49.7 55.8-39.9 49.6-59.3 91.7-59.4 129 0 17.3 3.6 29 12.9 41.7 16.5 22.4 54.2 33.2 82.6 23.8 13.5-4.5 28.2-15.9 36.7-28.4 7.8-11.4 14.9-28.7 19-46.6 4.5-19.1 5.5-31 5.5-62 0-32.8-.9-42.8-6.9-72.5-4.6-22.5-16-64.5-17.5-64.5-.4 0-10.8 10.7-23.2 23.7zM729.9 590.3c-33 17.6-48.4 26.5-65.2 37.6-46.1 30.5-68.1 59.3-70.3 92.1-1.2 17.2 4.1 31.7 16 43.6 7.9 7.9 16.2 12.9 28.1 17 10.2 3.5 25.7 4 34.5 1 41.5-13.9 71.7-66 81.4-140.1 3.1-23.5 4.9-65.7 2.9-65.4-.5 0-12.8 6.5-27.4 14.2z"/></svg>