<svg width="20" height="20" viewBox="0 0 20 20" fill="none" xmlns="http://www.w3.org/2000/svg">
<path fill-rule="evenodd" clip-rule="evenodd" d="M8.20711 2.62621C8.59763 3.01673 8.59763 3.6499 8.20711 4.04042L4.91421 7.33331H10.8333C12.8667 7.33331 14.8167 8.14105 16.2545 9.57883C17.6923 11.0166 18.5 12.9667 18.5 15C18.5 15.5523 18.0523 16 17.5 16C16.9477 16 16.5 15.5523 16.5 15C16.5 13.4971 15.903 12.0557 14.8403 10.993C13.7776 9.93033 12.3362 9.33331 10.8333 9.33331H4.91421L8.20711 12.6262C8.59763 13.0167 8.59763 13.6499 8.20711 14.0404C7.81658 14.4309 7.18342 14.4309 6.79289 14.0404L1.79289 9.04042C1.60536 8.85288 1.5 8.59853 1.5 8.33331C1.5 8.0681 1.60536 7.81374 1.79289 7.62621L6.79289 2.62621C7.18342 2.23568 7.81658 2.23568 8.20711 2.62621Z" fill="#3C968A"/>
</svg>
